<?xml version="1.0" encoding="UTF-8" standalone="no"?>
<svg
   xmlns:dc="http://purl.org/dc/elements/1.1/"
   xmlns:cc="http://creativecommons.org/ns#"
   xmlns:rdf="http://www.w3.org/1999/02/22-rdf-syntax-ns#"
   xmlns:svg="http://www.w3.org/2000/svg"
   xmlns="http://www.w3.org/2000/svg"
   xmlns:sodipodi="http://sodipodi.sourceforge.net/DTD/sodipodi-0.dtd"
   xmlns:inkscape="http://www.inkscape.org/namespaces/inkscape"
   version="1.1"
   viewBox="0 0 337.05078 237.31795"
   stroke-miterlimit="10"
   width="337.05078"
   height="237.31795"
   id="svg335"
   sodipodi:docname="survey_areas.svg"
   style="fill:none;stroke:none;stroke-linecap:square;stroke-miterlimit:10"
   inkscape:version="0.92.4 (unknown)">
  <metadata
     id="metadata341">
    <rdf:RDF>
      <cc:Work
         rdf:about="">
        <dc:format>image/svg+xml</dc:format>
        <dc:type
           rdf:resource="http://purl.org/dc/dcmitype/StillImage" />
        <dc:title></dc:title>
      </cc:Work>
    </rdf:RDF>
  </metadata>
  <defs
     id="defs339" />
  <sodipodi:namedview
     pagecolor="#ffffff"
     bordercolor="#666666"
     borderopacity="1"
     objecttolerance="10"
     gridtolerance="10"
     guidetolerance="10"
     inkscape:pageopacity="0"
     inkscape:pageshadow="2"
     inkscape:window-width="1677"
     inkscape:window-height="1628"
     id="namedview337"
     showgrid="false"
     fit-margin-top="0"
     fit-margin-left="0"
     fit-margin-right="0"
     fit-margin-bottom="0"
     inkscape:zoom="2.2884848"
     inkscape:cx="173.77772"
     inkscape:cy="96.684054"
     inkscape:window-x="358"
     inkscape:window-y="821"
     inkscape:window-maximized="0"
     inkscape:current-layer="svg335" />
  <path
     d="m -30.80225,-568.15159 h 600 v 825 h -600 z"
     id="path2"
     inkscape:connector-curvature="0"
     style="fill:#ffffff;fill-rule:nonzero" />
  <path
     d="m -30.80225,-568.15159 h 600 v 825 h -600 z"
     id="path4"
     inkscape:connector-curvature="0"
     style="fill:#ffffff;fill-rule:nonzero" />
  <path
     d="M 110.69775,27.11168 V 171.34841"
     id="path6"
     inkscape:connector-curvature="0"
     style="fill-rule:nonzero;stroke:#333333;stroke-width:0.45853859;stroke-linecap:butt" />
  <path
     d="M 218.69775,27.11168 V 171.34841"
     id="path8"
     inkscape:connector-curvature="0"
     style="fill-rule:nonzero;stroke:#cccccc;stroke-width:0.45853859;stroke-linecap:butt" />
  <path
     d="M 325.69775,27.11168 V 171.34841"
     id="path10"
     inkscape:connector-curvature="0"
     style="fill-rule:nonzero;stroke:#cccccc;stroke-width:0.45853859;stroke-linecap:butt" />
  <clipPath
     id="id_0">
    <path
       d="m 141.8508,53.07325 h 429.1295 v 686.1646 H 141.8508 Z"
       id="path16"
       inkscape:connector-curvature="0"
       style="clip-rule:nonzero" />
  </clipPath>
  <path
     clip-path="url(#id_0)"
     d="m 142,695 v -11 h 14 c 1.10457,0 2,0.89545 2,2 v 7 c 0,1.10455 -0.89543,2 -2,2 z"
     id="path51"
     inkscape:connector-curvature="0"
     style="fill-rule:nonzero;stroke:#000000;stroke-width:0;stroke-linecap:butt;stroke-opacity:0"
     transform="translate(-30.80225,-568.15159)" />
  <path
     clip-path="url(#id_0)"
     d="m 142,707 v -11 h 14 c 1.10457,0 2,0.89545 2,2 v 7 c 0,1.10455 -0.89543,2 -2,2 z"
     id="path87"
     inkscape:connector-curvature="0"
     style="fill-rule:nonzero;stroke:#000000;stroke-width:0;stroke-linecap:butt;stroke-opacity:0"
     transform="translate(-30.80225,-568.15159)" />
  <path
     clip-path="url(#id_0)"
     d="m 142,496 v -11 h 25 c 1.10457,0 2,0.89542 2,2 v 7 c 0,1.10458 -0.89543,2 -2,2 z"
     id="path119"
     inkscape:connector-curvature="0"
     transform="translate(-30.80225,-408.15159)"
     style="fill-rule:nonzero;stroke:#000000;stroke-width:0;stroke-linecap:butt;stroke-opacity:0" />
  <path
     clip-path="url(#id_0)"
     d="m 142,496 v -11 h 25 c 1.10457,0 2,0.89542 2,2 v 7 c 0,1.10458 -0.89543,2 -2,2 z"
     id="path121"
     inkscape:connector-curvature="0"
     style="fill:#1ba29c;fill-rule:nonzero"
     transform="translate(-30.80225,-418.15159)" />
  <path
     clip-path="url(#id_0)"
     d="m 142,608 v -11 h 9 c 1.10457,0 2,0.89545 2,2 v 7 c 0,1.10455 -0.89543,2 -2,2 z"
     id="path127"
     inkscape:connector-curvature="0"
     transform="translate(-30.80225,-486.15159)"
     style="fill-rule:nonzero;stroke:#000000;stroke-width:0;stroke-linecap:butt;stroke-opacity:0" />
  <path
     clip-path="url(#id_0)"
     d="m 142,608 v -11 h 9 c 1.10457,0 2,0.89545 2,2 v 7 c 0,1.10455 -0.89543,2 -2,2 z"
     id="path129"
     inkscape:connector-curvature="0"
     style="fill:#1ba29c;fill-rule:nonzero"
     transform="translate(-30.80225,-496.15159)" />
  <path
     clip-path="url(#id_0)"
     d="m 142,719 v -11 h 9 c 1.10457,0 2,0.89545 2,2 v 7 c 0,1.10455 -0.89543,2 -2,2 z"
     id="path135"
     inkscape:connector-curvature="0"
     style="fill-rule:nonzero;stroke:#000000;stroke-width:0;stroke-linecap:butt;stroke-opacity:0"
     transform="translate(-30.80225,-568.15159)" />
  <path
     clip-path="url(#id_0)"
     d="m 142,719 v -11 h 9 c 1.10457,0 2,0.89545 2,2 v 7 c 0,1.10455 -0.89543,2 -2,2 z"
     id="path137"
     inkscape:connector-curvature="0"
     transform="translate(-30.80225,-578.15159)"
     style="fill:#1ba29c;fill-rule:nonzero" />
  <path
     d="m 141.42216,121.55151 h 0.8125 q 0.78125,-0.0156 1.21875,-0.4062 0.4375,-0.39065 0.4375,-1.0625 0,-1.5 -1.5,-1.5 -0.70312,0 -1.125,0.4062 -0.40625,0.4063 -0.40625,1.0625 h -1.09375 q 0,-1.0156 0.73438,-1.6875 0.75,-0.67185 1.89062,-0.67185 1.20313,0 1.89063,0.64065 0.6875,0.6406 0.6875,1.7812 0,0.5625 -0.35938,1.07815 -0.35937,0.51565 -0.98437,0.78125 0.70312,0.21875 1.07812,0.7344 0.39063,0.5156 0.39063,1.2656 0,1.1406 -0.75,1.8281 -0.75,0.6719 -1.95313,0.6719 -1.1875,0 -1.95312,-0.65625 -0.75,-0.65625 -0.75,-1.71875 h 1.09375 q 0,0.6719 0.4375,1.0781 0.4375,0.4063 1.1875,0.4063 0.78125,0 1.1875,-0.4063 0.42187,-0.42185 0.42187,-1.1875 0,-0.73435 -0.45312,-1.125 -0.45313,-0.4062 -1.32813,-0.42185 h -0.8125 z m 5.32813,-2.0937 q 0,-0.76565 0.48437,-1.26565 0.5,-0.5 1.26563,-0.5 0.78125,0 1.26562,0.5 0.48438,0.5 0.48438,1.29685 v 0.4219 q 0,0.7656 -0.5,1.2656 -0.48438,0.4844 -1.23438,0.4844 -0.76562,0 -1.26562,-0.4844 -0.5,-0.5 -0.5,-1.3125 z m 0.8125,0.4531 q 0,0.4531 0.25,0.75 0.26562,0.2969 0.70312,0.2969 0.42188,0 0.67188,-0.2813 0.25,-0.29685 0.25,-0.79685 v -0.42185 q 0,-0.45315 -0.25,-0.75 -0.25,-0.3125 -0.6875,-0.3125 -0.4375,0 -0.6875,0.3125 -0.25,0.29685 -0.25,0.7656 z m 3.34375,4.34375 q 0,-0.76565 0.48437,-1.25 0.5,-0.5 1.26563,-0.5 0.76562,0 1.25,0.5 0.5,0.48435 0.5,1.29685 v 0.4063 q 0,0.7656 -0.48438,1.2656 -0.48437,0.5 -1.25,0.5 -0.76562,0 -1.26562,-0.4844 -0.5,-0.5 -0.5,-1.3125 z m 0.8125,0.45315 q 0,0.4687 0.25,0.7656 0.26562,0.2969 0.70312,0.2969 0.42188,0 0.67188,-0.2813 0.25,-0.29685 0.25,-0.79685 v -0.4375 q 0,-0.46875 -0.26563,-0.75 -0.25,-0.29685 -0.67187,-0.29685 -0.42188,0 -0.6875,0.29685 -0.25,0.28125 -0.25,0.78125 z m -2.95313,1 -0.625,-0.39065 4.17188,-6.67185 0.60937,0.3906 z"
     id="path171"
     inkscape:connector-curvature="0"
     style="fill-rule:nonzero;stroke:#ffffff;stroke-width:3;stroke-linecap:round;stroke-linejoin:round" />
  <path
     d="m 141.42216,133.55151 h 0.8125 q 0.78125,-0.0156 1.21875,-0.4062 0.4375,-0.39065 0.4375,-1.0625 0,-1.5 -1.5,-1.5 -0.70312,0 -1.125,0.4062 -0.40625,0.4063 -0.40625,1.0625 h -1.09375 q 0,-1.0156 0.73438,-1.6875 0.75,-0.67185 1.89062,-0.67185 1.20313,0 1.89063,0.64065 0.6875,0.6406 0.6875,1.7812 0,0.5625 -0.35938,1.07815 -0.35937,0.51565 -0.98437,0.78125 0.70312,0.21875 1.07812,0.7344 0.39063,0.5156 0.39063,1.2656 0,1.1406 -0.75,1.8281 -0.75,0.6719 -1.95313,0.6719 -1.1875,0 -1.95312,-0.65625 -0.75,-0.65625 -0.75,-1.71875 h 1.09375 q 0,0.6719 0.4375,1.0781 0.4375,0.4063 1.1875,0.4063 0.78125,0 1.1875,-0.4063 0.42187,-0.42185 0.42187,-1.1875 0,-0.73435 -0.45312,-1.125 -0.45313,-0.4062 -1.32813,-0.42185 h -0.8125 z m 5.32813,-2.0937 q 0,-0.76565 0.48437,-1.26565 0.5,-0.5 1.26563,-0.5 0.78125,0 1.26562,0.5 0.48438,0.5 0.48438,1.29685 v 0.4219 q 0,0.7656 -0.5,1.2656 -0.48438,0.4844 -1.23438,0.4844 -0.76562,0 -1.26562,-0.4844 -0.5,-0.5 -0.5,-1.3125 z m 0.8125,0.4531 q 0,0.4531 0.25,0.75 0.26562,0.2969 0.70312,0.2969 0.42188,0 0.67188,-0.2813 0.25,-0.29685 0.25,-0.79685 v -0.42185 q 0,-0.45315 -0.25,-0.75 -0.25,-0.3125 -0.6875,-0.3125 -0.4375,0 -0.6875,0.3125 -0.25,0.29685 -0.25,0.7656 z m 3.34375,4.34375 q 0,-0.76565 0.48437,-1.25 0.5,-0.5 1.26563,-0.5 0.76562,0 1.25,0.5 0.5,0.48435 0.5,1.29685 v 0.4063 q 0,0.7656 -0.48438,1.2656 -0.48437,0.5 -1.25,0.5 -0.76562,0 -1.26562,-0.4844 -0.5,-0.5 -0.5,-1.3125 z m 0.8125,0.45315 q 0,0.4687 0.25,0.7656 0.26562,0.2969 0.70312,0.2969 0.42188,0 0.67188,-0.2813 0.25,-0.29685 0.25,-0.79685 v -0.4375 q 0,-0.46875 -0.26563,-0.75 -0.25,-0.29685 -0.67187,-0.29685 -0.42188,0 -0.6875,0.29685 -0.25,0.28125 -0.25,0.78125 z m -2.95313,1 -0.625,-0.39065 4.17188,-6.67185 0.60937,0.3906 z"
     id="path207"
     inkscape:connector-curvature="0"
     style="fill-rule:nonzero;stroke:#ffffff;stroke-width:3;stroke-linecap:round;stroke-linejoin:round" />
  <path
     d="m 151.07226,83.06716 0.4375,-4.25 h 4.375 v 1 h -3.45312 l -0.26563,2.32813 q 0.64063,-0.375 1.4375,-0.375 1.15625,0 1.84375,0.78124 0.6875,0.76563 0.6875,2.07813 0,1.3125 -0.71875,2.07813 -0.70312,0.76562 -1.98437,0.76562 -1.125,0 -1.84375,-0.625 -0.71875,-0.64062 -0.8125,-1.75 h 1.01562 q 0.10938,0.73438 0.53125,1.10938 0.42188,0.375 1.10938,0.375 0.75,0 1.1875,-0.51563 0.4375,-0.51563 0.4375,-1.42187 0,-0.85938 -0.46875,-1.375 -0.46875,-0.51563 -1.25,-0.51563 -0.70313,0 -1.10938,0.29687 l -0.28125,0.23438 z m 6.40625,-2.60937 q 0,-0.76563 0.48438,-1.26563 0.5,-0.5 1.26562,-0.5 0.78125,0 1.26563,0.5 0.48437,0.5 0.48437,1.29687 v 0.42188 q 0,0.76562 -0.5,1.26562 -0.48437,0.48438 -1.23437,0.48438 -0.76563,0 -1.26563,-0.48438 -0.5,-0.5 -0.5,-1.3125 z m 0.8125,0.45312 q 0,0.45312 0.25,0.75 0.26563,0.29688 0.70313,0.29688 0.42187,0 0.67187,-0.28126 0.25,-0.29687 0.25,-0.79687 v -0.42187 q 0,-0.45313 -0.25,-0.75 -0.25,-0.3125 -0.6875,-0.3125 -0.4375,0 -0.6875,0.3125 -0.25,0.29687 -0.25,0.76562 z m 3.34375,4.34375 q 0,-0.76563 0.48438,-1.25 0.5,-0.5 1.26562,-0.5 0.76563,0 1.25,0.5 0.5,0.48437 0.5,1.29687 v 0.40626 q 0,0.76562 -0.48437,1.26562 -0.48438,0.5 -1.25,0.5 -0.76563,0 -1.26563,-0.48438 -0.5,-0.5 -0.5,-1.3125 z m 0.8125,0.45313 q 0,0.46874 0.25,0.76562 0.26563,0.29688 0.70313,0.29688 0.42187,0 0.67187,-0.28126 0.25,-0.29687 0.25,-0.79687 v -0.4375 q 0,-0.46875 -0.26562,-0.75 -0.25,-0.29687 -0.67188,-0.29687 -0.42187,0 -0.6875,0.29687 -0.25,0.28125 -0.25,0.78125 z m -2.95312,1 -0.625,-0.39063 4.17187,-6.67187 0.60938,0.39062 z"
     id="path239"
     inkscape:connector-curvature="0"
     style="fill-rule:nonzero;stroke:#ffffff;stroke-width:3;stroke-linecap:round;stroke-linejoin:round" />
  <path
     d="m 151.07226,73.06716 0.4375,-4.25 h 4.375 v 1 h -3.45312 l -0.26563,2.32813 q 0.64063,-0.375 1.4375,-0.375 1.15625,0 1.84375,0.78124 0.6875,0.76563 0.6875,2.07813 0,1.3125 -0.71875,2.07813 -0.70312,0.76562 -1.98437,0.76562 -1.125,0 -1.84375,-0.625 -0.71875,-0.64062 -0.8125,-1.75 h 1.01562 q 0.10938,0.73438 0.53125,1.10938 0.42188,0.375 1.10938,0.375 0.75,0 1.1875,-0.51563 0.4375,-0.51563 0.4375,-1.42187 0,-0.85938 -0.46875,-1.375 -0.46875,-0.51563 -1.25,-0.51563 -0.70313,0 -1.10938,0.29687 l -0.28125,0.23438 z m 6.40625,-2.60937 q 0,-0.76563 0.48438,-1.26563 0.5,-0.5 1.26562,-0.5 0.78125,0 1.26563,0.5 0.48437,0.5 0.48437,1.29687 v 0.42188 q 0,0.76562 -0.5,1.26562 -0.48437,0.48438 -1.23437,0.48438 -0.76563,0 -1.26563,-0.48438 -0.5,-0.5 -0.5,-1.3125 z m 0.8125,0.45312 q 0,0.45312 0.25,0.75 0.26563,0.29688 0.70313,0.29688 0.42187,0 0.67187,-0.28126 0.25,-0.29687 0.25,-0.79687 v -0.42187 q 0,-0.45313 -0.25,-0.75 -0.25,-0.3125 -0.6875,-0.3125 -0.4375,0 -0.6875,0.3125 -0.25,0.29687 -0.25,0.76562 z m 3.34375,4.34375 q 0,-0.76563 0.48438,-1.25 0.5,-0.5 1.26562,-0.5 0.76563,0 1.25,0.5 0.5,0.48437 0.5,1.29687 v 0.40626 q 0,0.76562 -0.48437,1.26562 -0.48438,0.5 -1.25,0.5 -0.76563,0 -1.26563,-0.48438 -0.5,-0.5 -0.5,-1.3125 z m 0.8125,0.45313 q 0,0.46874 0.25,0.76562 0.26563,0.29688 0.70313,0.29688 0.42187,0 0.67187,-0.28126 0.25,-0.29687 0.25,-0.79687 v -0.4375 q 0,-0.46875 -0.26562,-0.75 -0.25,-0.29687 -0.67188,-0.29687 -0.42187,0 -0.6875,0.29687 -0.25,0.28125 -0.25,0.78125 z m -2.95312,1 -0.625,-0.39063 4.17187,-6.67187 0.60938,0.39062 z"
     id="path241"
     inkscape:connector-curvature="0"
     style="fill:#666666;fill-rule:nonzero" />
  <path
     d="m 140.07367,121.34841 h -5.59375 v -0.78125 l 2.95312,-3.28125 q 0.65625,-0.75 0.90625,-1.2031 0.25,-0.4688 0.25,-0.9688 0,-0.67185 -0.40625,-1.0937 -0.39062,-0.4375 -1.07812,-0.4375 -0.79688,0 -1.25,0.4687 -0.45313,0.45315 -0.45313,1.2813 h -1.07812 q 0,-1.1875 0.75,-1.9063 0.76562,-0.73435 2.03125,-0.73435 1.20312,0 1.89062,0.625 0.6875,0.625 0.6875,1.67185 0,1.25 -1.60937,3 l -2.28125,2.4688 h 4.28125 z m 1.3125,-6.8906 q 0,-0.76565 0.48437,-1.26565 0.5,-0.5 1.26563,-0.5 0.78125,0 1.26562,0.5 0.48438,0.5 0.48438,1.29685 v 0.4219 q 0,0.7656 -0.5,1.2656 -0.48438,0.4844 -1.23438,0.4844 -0.76562,0 -1.26562,-0.4844 -0.5,-0.5 -0.5,-1.3125 z m 0.8125,0.4531 q 0,0.4531 0.25,0.75 0.26562,0.2969 0.70312,0.2969 0.42188,0 0.67188,-0.2813 0.25,-0.29685 0.25,-0.79685 v -0.42185 q 0,-0.45315 -0.25,-0.75 -0.25,-0.3125 -0.6875,-0.3125 -0.4375,0 -0.6875,0.3125 -0.25,0.29685 -0.25,0.7656 z m 3.34375,4.34375 q 0,-0.76565 0.48437,-1.25 0.5,-0.5 1.26563,-0.5 0.76562,0 1.25,0.5 0.5,0.48435 0.5,1.29685 v 0.4063 q 0,0.7656 -0.48438,1.2656 -0.48437,0.5 -1.25,0.5 -0.76562,0 -1.26562,-0.4844 -0.5,-0.5 -0.5,-1.3125 z m 0.8125,0.45315 q 0,0.4687 0.25,0.7656 0.26562,0.2969 0.70312,0.2969 0.42188,0 0.67188,-0.2813 0.25,-0.29685 0.25,-0.79685 v -0.4375 q 0,-0.46875 -0.26563,-0.75 -0.25,-0.29685 -0.67187,-0.29685 -0.42188,0 -0.6875,0.29685 -0.25,0.28125 -0.25,0.78125 z m -2.95313,1 -0.625,-0.39065 4.17188,-6.67185 0.60937,0.3906 z"
     id="path247"
     inkscape:connector-curvature="0"
     style="fill-rule:nonzero;stroke:#ffffff;stroke-width:3;stroke-linecap:round;stroke-linejoin:round" />
  <path
     d="m 140.07367,111.34841 h -5.59375 v -0.78125 l 2.95312,-3.28125 q 0.65625,-0.75 0.90625,-1.2031 0.25,-0.4688 0.25,-0.9688 0,-0.67185 -0.40625,-1.0937 -0.39062,-0.4375 -1.07812,-0.4375 -0.79688,0 -1.25,0.4687 -0.45313,0.45315 -0.45313,1.2813 h -1.07812 q 0,-1.1875 0.75,-1.9063 0.76562,-0.73435 2.03125,-0.73435 1.20312,0 1.89062,0.625 0.6875,0.625 0.6875,1.67185 0,1.25 -1.60937,3 l -2.28125,2.4688 h 4.28125 z m 1.3125,-6.8906 q 0,-0.76565 0.48437,-1.26565 0.5,-0.5 1.26563,-0.5 0.78125,0 1.26562,0.5 0.48438,0.5 0.48438,1.29685 v 0.4219 q 0,0.7656 -0.5,1.2656 -0.48438,0.4844 -1.23438,0.4844 -0.76562,0 -1.26562,-0.4844 -0.5,-0.5 -0.5,-1.3125 z m 0.8125,0.4531 q 0,0.4531 0.25,0.75 0.26562,0.2969 0.70312,0.2969 0.42188,0 0.67188,-0.2813 0.25,-0.29685 0.25,-0.79685 v -0.42185 q 0,-0.45315 -0.25,-0.75 -0.25,-0.3125 -0.6875,-0.3125 -0.4375,0 -0.6875,0.3125 -0.25,0.29685 -0.25,0.7656 z m 3.34375,4.34375 q 0,-0.76565 0.48437,-1.25 0.5,-0.5 1.26563,-0.5 0.76562,0 1.25,0.5 0.5,0.48435 0.5,1.29685 v 0.4063 q 0,0.7656 -0.48438,1.2656 -0.48437,0.5 -1.25,0.5 -0.76562,0 -1.26562,-0.4844 -0.5,-0.5 -0.5,-1.3125 z m 0.8125,0.45315 q 0,0.4687 0.25,0.7656 0.26562,0.2969 0.70312,0.2969 0.42188,0 0.67188,-0.2813 0.25,-0.29685 0.25,-0.79685 v -0.4375 q 0,-0.46875 -0.26563,-0.75 -0.25,-0.29685 -0.67187,-0.29685 -0.42188,0 -0.6875,0.29685 -0.25,0.28125 -0.25,0.78125 z m -2.95313,1 -0.625,-0.39065 4.17188,-6.67185 0.60937,0.3906 z"
     id="path249"
     inkscape:connector-curvature="0"
     style="fill:#666666;fill-rule:nonzero" />
  <path
     d="m 140.07367,150.34841 h -5.59375 v -0.78125 l 2.95312,-3.28125 q 0.65625,-0.75 0.90625,-1.2031 0.25,-0.4688 0.25,-0.9688 0,-0.67185 -0.40625,-1.0937 -0.39062,-0.4375 -1.07812,-0.4375 -0.79688,0 -1.25,0.4687 -0.45313,0.45315 -0.45313,1.2813 h -1.07812 q 0,-1.1875 0.75,-1.9063 0.76562,-0.73435 2.03125,-0.73435 1.20312,0 1.89062,0.625 0.6875,0.625 0.6875,1.67185 0,1.25 -1.60937,3 l -2.28125,2.4688 h 4.28125 z m 1.3125,-6.8906 q 0,-0.76565 0.48437,-1.26565 0.5,-0.5 1.26563,-0.5 0.78125,0 1.26562,0.5 0.48438,0.5 0.48438,1.29685 v 0.4219 q 0,0.7656 -0.5,1.2656 -0.48438,0.4844 -1.23438,0.4844 -0.76562,0 -1.26562,-0.4844 -0.5,-0.5 -0.5,-1.3125 z m 0.8125,0.4531 q 0,0.4531 0.25,0.75 0.26562,0.2969 0.70312,0.2969 0.42188,0 0.67188,-0.2813 0.25,-0.29685 0.25,-0.79685 v -0.42185 q 0,-0.45315 -0.25,-0.75 -0.25,-0.3125 -0.6875,-0.3125 -0.4375,0 -0.6875,0.3125 -0.25,0.29685 -0.25,0.7656 z m 3.34375,4.34375 q 0,-0.76565 0.48437,-1.25 0.5,-0.5 1.26563,-0.5 0.76562,0 1.25,0.5 0.5,0.48435 0.5,1.29685 v 0.4063 q 0,0.7656 -0.48438,1.2656 -0.48437,0.5 -1.25,0.5 -0.76562,0 -1.26562,-0.4844 -0.5,-0.5 -0.5,-1.3125 z m 0.8125,0.45315 q 0,0.4687 0.25,0.7656 0.26562,0.2969 0.70312,0.2969 0.42188,0 0.67188,-0.2813 0.25,-0.29685 0.25,-0.79685 v -0.4375 q 0,-0.46875 -0.26563,-0.75 -0.25,-0.29685 -0.67187,-0.29685 -0.42188,0 -0.6875,0.29685 -0.25,0.28125 -0.25,0.78125 z m -2.95313,1 -0.625,-0.39065 4.17188,-6.67185 0.60937,0.3906 z"
     id="path255"
     inkscape:connector-curvature="0"
     style="fill-rule:nonzero;stroke:#ffffff;stroke-width:3;stroke-linecap:round;stroke-linejoin:round" />
  <path
     d="m 140.07367,140.34841 h -5.59375 v -0.78125 l 2.95312,-3.28125 q 0.65625,-0.75 0.90625,-1.2031 0.25,-0.4688 0.25,-0.9688 0,-0.67185 -0.40625,-1.0937 -0.39062,-0.4375 -1.07812,-0.4375 -0.79688,0 -1.25,0.4687 -0.45313,0.45315 -0.45313,1.2813 h -1.07812 q 0,-1.1875 0.75,-1.9063 0.76562,-0.73435 2.03125,-0.73435 1.20312,0 1.89062,0.625 0.6875,0.625 0.6875,1.67185 0,1.25 -1.60937,3 l -2.28125,2.4688 h 4.28125 z m 1.3125,-6.8906 q 0,-0.76565 0.48437,-1.26565 0.5,-0.5 1.26563,-0.5 0.78125,0 1.26562,0.5 0.48438,0.5 0.48438,1.29685 v 0.4219 q 0,0.7656 -0.5,1.2656 -0.48438,0.4844 -1.23438,0.4844 -0.76562,0 -1.26562,-0.4844 -0.5,-0.5 -0.5,-1.3125 z m 0.8125,0.4531 q 0,0.4531 0.25,0.75 0.26562,0.2969 0.70312,0.2969 0.42188,0 0.67188,-0.2813 0.25,-0.29685 0.25,-0.79685 v -0.42185 q 0,-0.45315 -0.25,-0.75 -0.25,-0.3125 -0.6875,-0.3125 -0.4375,0 -0.6875,0.3125 -0.25,0.29685 -0.25,0.7656 z m 3.34375,4.34375 q 0,-0.76565 0.48437,-1.25 0.5,-0.5 1.26563,-0.5 0.76562,0 1.25,0.5 0.5,0.48435 0.5,1.29685 v 0.4063 q 0,0.7656 -0.48438,1.2656 -0.48437,0.5 -1.25,0.5 -0.76562,0 -1.26562,-0.4844 -0.5,-0.5 -0.5,-1.3125 z m 0.8125,0.45315 q 0,0.4687 0.25,0.7656 0.26562,0.2969 0.70312,0.2969 0.42188,0 0.67188,-0.2813 0.25,-0.29685 0.25,-0.79685 v -0.4375 q 0,-0.46875 -0.26563,-0.75 -0.25,-0.29685 -0.67187,-0.29685 -0.42188,0 -0.6875,0.29685 -0.25,0.28125 -0.25,0.78125 z m -2.95313,1 -0.625,-0.39065 4.17188,-6.67185 0.60937,0.3906 z"
     id="path257"
     inkscape:connector-curvature="0"
     style="fill:#666666;fill-rule:nonzero" />
  <path
     d="m 168.8164,203.64956 q 0,-0.92185 0.45313,-1.5625 0.46875,-0.64065 1.34375,-0.64065 0.8125,0 1.34375,0.57815 0.53125,0.57815 0.53125,1.6875 0,1.09375 -0.54688,1.6875 -0.53125,0.57815 -1.3125,0.57815 -0.78125,0 -1.29687,-0.57815 -0.51563,-0.57815 -0.51563,-1.75 z m 1.82813,-1.48435 q -0.39063,0 -0.65625,0.3437 -0.25,0.3438 -0.25,1.25 0,0.82815 0.25,1.1719 0.26562,0.3281 0.65625,0.3281 0.40625,0 0.65625,-0.3437 0.26562,-0.3438 0.26562,-1.2344 0,-0.84375 -0.26562,-1.1719 -0.26563,-0.3437 -0.65625,-0.3437 z m 0,8.3281 4.70312,-9.0469 h 0.85938 l -4.6875,9.0469 z m 3.71875,-2.3281 q 0,-0.9219 0.45312,-1.5625 0.46875,-0.64065 1.35938,-0.64065 0.8125,0 1.34375,0.57815 0.53125,0.5625 0.53125,1.6875 0,1.0937 -0.54688,1.6875 -0.53125,0.5781 -1.32812,0.5781 -0.76563,0 -1.29688,-0.5781 -0.51562,-0.57815 -0.51562,-1.75 z m 1.84375,-1.4844 q -0.40625,0 -0.67188,0.34375 -0.25,0.34375 -0.25,1.25 0,0.8125 0.26563,1.15625 0.26562,0.34375 0.65625,0.34375 0.39062,0 0.65625,-0.34375 0.26562,-0.34375 0.26562,-1.25 0,-0.8281 -0.26562,-1.15625 -0.26563,-0.34375 -0.65625,-0.34375 z m 6.3125,0.3906 q 0,-1.73435 0.95312,-2.5625 0.79688,-0.6875 1.95313,-0.6875 1.28125,0 2.09375,0.8438 0.82812,0.8281 0.82812,2.3125 0,1.2031 -0.35937,1.8906 -0.35938,0.6875 -1.0625,1.0781 -0.6875,0.375 -1.5,0.375 -1.29688,0 -2.10938,-0.8281 -0.79687,-0.84375 -0.79687,-2.4219 z m 1.07812,0 q 0,1.1875 0.51563,1.7813 0.53125,0.5937 1.3125,0.5937 0.79687,0 1.3125,-0.5937 0.51562,-0.5938 0.51562,-1.8125 0,-1.1563 -0.53125,-1.75 -0.51562,-0.5938 -1.29687,-0.5938 -0.78125,0 -1.3125,0.5938 -0.51563,0.5781 -0.51563,1.7812 z m 6.5625,3.1094 v -5.40625 h -0.9375 v -0.8125 h 0.9375 v -0.67185 q 0,-0.625 0.10938,-0.9219 0.15625,-0.4219 0.53125,-0.6719 0.39062,-0.25 1.07812,-0.25 0.45313,0 0.98438,0.1094 l -0.15625,0.90625 q -0.32813,-0.0469 -0.625,-0.0469 -0.48438,0 -0.6875,0.2031 -0.1875,0.2031 -0.1875,0.7656 v 0.57815 h 1.21875 v 0.8125 h -1.21875 v 5.40625 z m 5.73438,0 v -6.21875 h 0.95312 v 0.9375 q 0.35938,-0.65625 0.65625,-0.85935 0.3125,-0.2188 0.6875,-0.2188 0.53125,0 1.07813,0.32815 l -0.35938,0.98435 q -0.39062,-0.23435 -0.76562,-0.23435 -0.35938,0 -0.64063,0.21875 -0.26562,0.2031 -0.375,0.5781 -0.1875,0.5625 -0.1875,1.2188 v 3.2656 z m 8.26562,-2 1.09375,0.125 q -0.25,0.9531 -0.95312,1.4844 -0.70313,0.5312 -1.78125,0.5312 -1.35938,0 -2.17188,-0.8437 -0.79687,-0.8438 -0.79687,-2.3594 0,-1.5625 0.8125,-2.4219 0.8125,-0.875 2.09375,-0.875 1.25,0 2.03125,0.8438 0.79687,0.8437 0.79687,2.3906 0,0.0937 0,0.28125 h -4.64062 q 0.0625,1.03125 0.57812,1.57815 0.51563,0.5312 1.29688,0.5312 0.57812,0 0.98437,-0.29685 0.42188,-0.3125 0.65625,-0.96875 z m -3.45312,-1.7031 h 3.46875 q -0.0625,-0.7969 -0.39063,-1.1875 -0.51562,-0.6094 -1.3125,-0.6094 -0.73437,0 -1.23437,0.4844 -0.48438,0.48435 -0.53125,1.3125 z m 5.78125,1.8437 1.03125,-0.1562 q 0.0937,0.625 0.48437,0.9531 0.40625,0.3281 1.14063,0.3281 0.71875,0 1.0625,-0.2812 0.35937,-0.2969 0.35937,-0.70315 0,-0.35935 -0.3125,-0.5625 -0.21875,-0.14065 -1.07812,-0.35935 -1.15625,-0.2969 -1.60938,-0.5 -0.4375,-0.2188 -0.67187,-0.5938 -0.23438,-0.375 -0.23438,-0.8437 0,-0.4063 0.1875,-0.76565 0.1875,-0.35935 0.51563,-0.59375 0.25,-0.1719 0.67187,-0.2969 0.42188,-0.125 0.92188,-0.125 0.71875,0 1.26562,0.2188 0.5625,0.2031 0.82813,0.5625 0.26562,0.35935 0.35937,0.9531 l -1.03125,0.1406 q -0.0625,-0.4687 -0.40625,-0.73435 -0.32812,-0.28125 -0.95312,-0.28125 -0.71875,0 -1.03125,0.25 -0.3125,0.2344 -0.3125,0.5625 0,0.2031 0.125,0.3594 0.14062,0.17185 0.40625,0.2812 0.15625,0.0625 0.9375,0.26565 1.125,0.3125 1.5625,0.5 0.4375,0.1875 0.6875,0.54685 0.25,0.3594 0.25,0.9063 0,0.5312 -0.3125,1 -0.29688,0.4531 -0.875,0.7187 -0.57813,0.25 -1.3125,0.25 -1.21875,0 -1.85938,-0.5 -0.625,-0.5156 -0.79687,-1.5 z m 6.42187,4.25 v -8.60935 h 0.95313 v 0.79685 q 0.34375,-0.4687 0.76562,-0.7031 0.4375,-0.2344 1.04688,-0.2344 0.79687,0 1.40625,0.4063 0.60937,0.4062 0.90625,1.1562 0.3125,0.75 0.3125,1.64065 0,0.95315 -0.34375,1.71875 -0.32813,0.7656 -0.98438,1.1719 -0.65625,0.4062 -1.375,0.4062 -0.53125,0 -0.95312,-0.2187 -0.42188,-0.2344 -0.6875,-0.5625 v 3.0312 z m 0.95313,-5.4687 q 0,1.2031 0.48437,1.7812 0.48438,0.5625 1.17188,0.5625 0.70312,0 1.20312,-0.5937 0.5,-0.5938 0.5,-1.8438 0,-1.1875 -0.48437,-1.7656 -0.48438,-0.59375 -1.17188,-0.59375 -0.67187,0 -1.1875,0.625 -0.51562,0.625 -0.51562,1.82815 z m 5.65625,-0.0313 q 0,-1.73435 0.95312,-2.5625 0.79688,-0.6875 1.95313,-0.6875 1.28125,0 2.09375,0.8438 0.82812,0.8281 0.82812,2.3125 0,1.2031 -0.35937,1.8906 -0.35938,0.6875 -1.0625,1.0781 -0.6875,0.375 -1.5,0.375 -1.29688,0 -2.10938,-0.8281 -0.79687,-0.84375 -0.79687,-2.4219 z m 1.07812,0 q 0,1.1875 0.51563,1.7813 0.53125,0.5937 1.3125,0.5937 0.79687,0 1.3125,-0.5937 0.51562,-0.5938 0.51562,-1.8125 0,-1.1563 -0.53125,-1.75 -0.51562,-0.5938 -1.29687,-0.5938 -0.78125,0 -1.3125,0.5938 -0.51563,0.5781 -0.51563,1.7812 z m 6.3125,3.1094 v -6.21875 h 0.9375 v 0.875 q 0.6875,-1.01565 1.98438,-1.01565 0.5625,0 1.03125,0.20315 0.48437,0.20315 0.71875,0.53125 0.23437,0.3281 0.32812,0.7656 0.0469,0.2969 0.0469,1.0313 v 3.8281 h -1.04688 v -3.78125 q 0,-0.65625 -0.125,-0.96875 -0.125,-0.3125 -0.4375,-0.5 -0.3125,-0.2031 -0.73437,-0.2031 -0.67188,0 -1.17188,0.4375 -0.48437,0.42185 -0.48437,1.60935 v 3.40625 z m 11.03125,0 v -0.78125 q -0.59375,0.92185 -1.73437,0.92185 -0.75,0 -1.375,-0.4062 -0.625,-0.4219 -0.96875,-1.1563 -0.34375,-0.73435 -0.34375,-1.6875 0,-0.92185 0.3125,-1.6875 0.3125,-0.7656 0.9375,-1.1562 0.625,-0.4063 1.39062,-0.4063 0.5625,0 1,0.2344 0.4375,0.2344 0.71875,0.6094 v -3.07815 h 1.04688 v 8.59375 z m -3.32812,-3.1094 q 0,1.20315 0.5,1.7969 0.5,0.5781 1.1875,0.5781 0.6875,0 1.17187,-0.5625 0.48438,-0.5625 0.48438,-1.7187 0,-1.2813 -0.5,-1.875 -0.48438,-0.5938 -1.20313,-0.5938 -0.70312,0 -1.17187,0.57815 -0.46875,0.5625 -0.46875,1.79685 z m 10.54687,1.1094 1.09375,0.125 q -0.25,0.9531 -0.95312,1.4844 -0.70313,0.5312 -1.78125,0.5312 -1.35938,0 -2.17188,-0.8437 -0.79687,-0.8438 -0.79687,-2.3594 0,-1.5625 0.8125,-2.4219 0.8125,-0.875 2.09375,-0.875 1.25,0 2.03125,0.8438 0.79687,0.8437 0.79687,2.3906 0,0.0937 0,0.28125 h -4.64062 q 0.0625,1.03125 0.57812,1.57815 0.51563,0.5312 1.29688,0.5312 0.57812,0 0.98437,-0.29685 0.42188,-0.3125 0.65625,-0.96875 z m -3.45312,-1.7031 h 3.46875 q -0.0625,-0.7969 -0.39063,-1.1875 -0.51562,-0.6094 -1.3125,-0.6094 -0.73437,0 -1.23437,0.4844 -0.48438,0.48435 -0.53125,1.3125 z m 6.20312,3.7031 v -6.21875 h 0.9375 v 0.875 q 0.6875,-1.01565 1.98438,-1.01565 0.5625,0 1.03125,0.20315 0.48437,0.20315 0.71875,0.53125 0.23437,0.3281 0.32812,0.7656 0.0469,0.2969 0.0469,1.0313 v 3.8281 h -1.04688 v -3.78125 q 0,-0.65625 -0.125,-0.96875 -0.125,-0.3125 -0.4375,-0.5 -0.3125,-0.2031 -0.73437,-0.2031 -0.67188,0 -1.17188,0.4375 -0.48437,0.42185 -0.48437,1.60935 v 3.40625 z m 9.29688,-0.9375 0.15625,0.9219 q -0.45313,0.0937 -0.79688,0.0937 -0.57812,0 -0.89062,-0.17185 -0.3125,-0.1875 -0.45313,-0.48435 -0.125,-0.2969 -0.125,-1.25 v -3.57815 h -0.76562 v -0.8125 h 0.76562 v -1.54685 l 1.04688,-0.625 v 2.17185 h 1.0625 v 0.8125 h -1.0625 v 3.64065 q 0,0.4531 0.0469,0.5781 0.0625,0.125 0.1875,0.2031 0.125,0.0782 0.35938,0.0782 0.1875,0 0.46875,-0.0312 z m 0.28125,-0.9219 1.03125,-0.1562 q 0.0937,0.625 0.48437,0.9531 0.40625,0.3281 1.14063,0.3281 0.71875,0 1.0625,-0.2812 0.35937,-0.2969 0.35937,-0.70315 0,-0.35935 -0.3125,-0.5625 -0.21875,-0.14065 -1.07812,-0.35935 -1.15625,-0.2969 -1.60938,-0.5 -0.4375,-0.2188 -0.67187,-0.5938 -0.23438,-0.375 -0.23438,-0.8437 0,-0.4063 0.1875,-0.76565 0.1875,-0.35935 0.51563,-0.59375 0.25,-0.1719 0.67187,-0.2969 0.42188,-0.125 0.92188,-0.125 0.71875,0 1.26562,0.2188 0.5625,0.2031 0.82813,0.5625 0.26562,0.35935 0.35937,0.9531 l -1.03125,0.1406 q -0.0625,-0.4687 -0.40625,-0.73435 -0.32812,-0.28125 -0.95312,-0.28125 -0.71875,0 -1.03125,0.25 -0.3125,0.2344 -0.3125,0.5625 0,0.2031 0.125,0.3594 0.14062,0.17185 0.40625,0.2812 0.15625,0.0625 0.9375,0.26565 1.125,0.3125 1.5625,0.5 0.4375,0.1875 0.6875,0.54685 0.25,0.3594 0.25,0.9063 0,0.5312 -0.3125,1 -0.29688,0.4531 -0.875,0.7187 -0.57813,0.25 -1.3125,0.25 -1.21875,0 -1.85938,-0.5 -0.625,-0.5156 -0.79687,-1.5 z"
     id="path259"
     inkscape:connector-curvature="0"
     style="fill:#666666;fill-rule:nonzero" />
  <path
     d="m 32.03293,68.34381 v -8.53126 h 2.42187 q 1.109375,0 1.953125,0.5 0.859375,0.48438 1.328125,1.39063 0.46875,0.90625 0.46875,2.09375 v 0.53125 q 0,1.21875 -0.46875,2.125 -0.453125,0.90625 -1.328125,1.39063 -0.859375,0.48437 -2,0.5 z m 1.125,-7.60938 v 6.6875 h 1.187495 q 1.296875,0 2.015625,-0.79688 0.734375,-0.8125 0.734375,-2.3125 v -0.5 q 0,-1.45312 -0.6875,-2.25 -0.671875,-0.8125 -1.9375,-0.82812 z m 9.343745,7.73438 q -1.296875,0 -2.109375,-0.84376 -0.796875,-0.85937 -0.796875,-2.28124 v -0.1875 q 0,-0.95313 0.359375,-1.6875 0.359375,-0.75 1,-1.15626 0.65625,-0.42187 1.40625,-0.42187 1.234375,0 1.921875,0.8125 0.6875,0.8125 0.6875,2.32813 v 0.45312 H 40.67355 q 0.03125,0.9375 0.546875,1.51562 0.53125,0.57813 1.34375,0.57813 0.5625,0 0.953125,-0.23437 0.40625,-0.23438 0.71875,-0.625 l 0.65625,0.51562 q -0.796875,1.23438 -2.390625,1.23438 z m -0.140625,-5.6875 q -0.65625,0 -1.109375,0.48437 -0.4375,0.46875 -0.53125,1.32813 H 43.8923 v -0.0781 Q 43.84543,63.68758 43.439175,63.23446 43.04855,62.78131 42.36105,62.78131 Z m 7.203125,3.875 q 0,-0.4375 -0.34375,-0.67188 -0.328125,-0.25 -1.15625,-0.42188 -0.8125,-0.17187 -1.296875,-0.42187 -0.484375,-0.25 -0.71875,-0.57813 -0.21875,-0.34374 -0.21875,-0.8125 0,-0.78124 0.65625,-1.3125 0.65625,-0.54687 1.6875,-0.54687 1.078125,0 1.734375,0.5625 0.671875,0.54687 0.671875,1.40625 h -1.078125 q 0,-0.4375 -0.390625,-0.75 -0.375,-0.32812 -0.9375,-0.32812 -0.59375,0 -0.9375,0.26562 -0.328125,0.25 -0.328125,0.65625 0,0.39063 0.3125,0.59375 0.3125,0.20312 1.125,0.39062 0.8125,0.17188 1.3125,0.42188 0.5,0.25 0.734375,0.60938 0.25,0.35937 0.25,0.85937 0,0.85937 -0.6875,1.375 -0.671875,0.51563 -1.75,0.51563 -0.765625,0 -1.359375,-0.26563 Q 46.2673,67.92193 45.939175,67.43755 45.61105,66.95318 45.61105,66.39068 h 1.078125 q 0.03125,0.54687 0.4375,0.875 0.40625,0.3125 1.078125,0.3125 0.609375,0 0.984375,-0.25 0.375,-0.25 0.375,-0.67187 z m 4.078125,-1.25 -0.6875,0.70312 v 2.23438 h -1.078125 v -9 H 52.9548 v 5.4375 l 0.578125,-0.6875 1.984375,-2.09376 h 1.3125 l -2.46875,2.65626 2.765625,3.6875 h -1.28125 z m 5.703125,-4.9375 v 1.53124 H 60.5173 v 0.84376 h -1.171875 v 3.92187 q 0,0.39063 0.15625,0.57813 0.15625,0.1875 0.53125,0.1875 0.1875,0 0.515625,-0.0625 v 0.875 q -0.421875,0.125 -0.828125,0.125 -0.71875,0 -1.09375,-0.4375 -0.375,-0.45313 -0.375,-1.26563 v -3.92187 h -1.15625 v -0.84376 h 1.15625 v -1.53124 z m 2.234375,4.64062 q 0,-0.92188 0.359375,-1.67188 0.375,-0.75 1.03125,-1.14062 0.65625,-0.40625 1.484375,-0.40625 1.296875,0 2.09375,0.89063 0.8125,0.89062 0.8125,2.39062 v 0.0781 q 0,0.92188 -0.359375,1.65626 -0.359375,0.73437 -1.015625,1.15624 -0.65625,0.40626 -1.515625,0.40626 -1.28125,0 -2.09375,-0.89063 Q 61.5798,66.67191 61.5798,65.18753 Z m 1.09375,0.14062 q 0,1.04688 0.484375,1.6875 0.5,0.64063 1.3125,0.64063 0.828125,0 1.3125,-0.64063 0.484375,-0.65624 0.484375,-1.82812 0,-1.03125 -0.5,-1.67188 -0.484375,-0.65624 -1.3125,-0.65624 -0.796875,0 -1.296875,0.64062 -0.484375,0.625 -0.484375,1.82812 z m 11.54688,0 q 0,1.4375 -0.65625,2.32813 -0.65625,0.89063 -1.79688,0.89063 -1.15625,0 -1.8125,-0.73438 v 3.04688 h -1.078125 v -8.78126 h 0.984375 l 0.0469,0.70313 q 0.67187,-0.8125 1.84375,-0.8125 1.14062,0 1.79687,0.85937 0.67188,0.85938 0.67188,2.39063 z m -1.07813,-0.125 q 0,-1.07812 -0.46875,-1.6875 -0.45312,-0.625 -1.25,-0.625 -0.98437,0 -1.46875,0.85938 v 3.03125 q 0.48438,0.875 1.48438,0.875 0.78125,0 1.23437,-0.60937 0.46875,-0.625 0.46875,-1.84376 z m 5.9375,3.95313 h -0.92187 l 3.5625,-9.26563 h 0.92187 z m 14.26563,-1.85937 q -0.4375,0.625 -1.21875,0.9375 -0.78125,0.3125 -1.8125,0.3125 -1.03125,0 -1.84375,-0.48438 -0.8125,-0.5 -1.25,-1.40625 -0.4375,-0.90625 -0.45313,-2.09375 v -0.73438 q 0,-1.9375 0.89063,-3 0.90625,-1.0625 2.53125,-1.0625 1.34375,0 2.15625,0.6875 0.8125,0.6875 1,1.9375 h -1.125 q -0.32813,-1.6875 -2.01563,-1.6875 -1.14062,0 -1.71875,0.79688 -0.57812,0.78125 -0.59375,2.29688 v 0.6875 q 0,1.4375 0.65625,2.29687 0.65625,0.84375 1.78125,0.84375 0.625,0 1.09375,-0.14062 0.48438,-0.14063 0.79688,-0.48438 v -1.90625 h -1.96875 v -0.92187 h 3.09375 z m 7.70312,-7.40626 v 5.79688 q -0.0156,1.20312 -0.76563,1.98438 -0.75,0.76562 -2.03125,0.85937 l -0.3125,0.0156 q -1.39062,0 -2.23437,-0.75 -0.82812,-0.76563 -0.82812,-2.09376 v -5.8125 h 1.10937 v 5.78126 q 0,0.92187 0.5,1.4375 0.51563,0.51562 1.45312,0.51562 0.96875,0 1.46875,-0.51562 0.5,-0.51563 0.5,-1.4375 v -5.78126 z m 3.20312,8.53126 h -1.125 v -8.53126 h 1.125 z"
     id="path299"
     inkscape:connector-curvature="0"
     style="fill:#666666;fill-rule:nonzero" />
  <path
     d="m 42.782925,83.34381 q -0.09375,-0.1875 -0.15625,-0.67188 -0.75,0.79688 -1.796875,0.79688 -0.9375,0 -1.546875,-0.53126 -0.59375,-0.53124 -0.59375,-1.35937 0,-0.98437 0.75,-1.53125 0.75,-0.54688 2.125,-0.54688 h 1.046875 v -0.5 q 0,-0.5625 -0.34375,-0.89062 -0.328125,-0.34375 -1,-0.34375 -0.578125,0 -0.96875,0.29687 -0.390625,0.28126 -0.390625,0.70313 h -1.09375 q 0,-0.48437 0.328125,-0.92187 0.34375,-0.4375 0.921875,-0.6875 0.578125,-0.26563 1.265625,-0.26563 1.109375,0 1.71875,0.54687 0.625,0.54688 0.65625,1.5 v 2.92188 q 0,0.875 0.21875,1.39062 v 0.0938 z M 40.98605,82.51568 q 0.515625,0 0.96875,-0.26563 0.453125,-0.26562 0.65625,-0.6875 V 80.26568 H 41.7673 q -2,0 -2,1.17187 0,0.5 0.34375,0.79688 0.34375,0.28125 0.875,0.28125 z m 10.234375,-2.26563 q 0,1.4375 -0.65625,2.32813 -0.65625,0.89063 -1.796875,0.89063 -1.15625,0 -1.8125,-0.73438 v 3.04688 h -1.078125 v -8.78126 h 0.984375 l 0.04687,0.70313 q 0.671875,-0.8125 1.84375,-0.8125 1.140625,0 1.796875,0.85937 0.671875,0.85938 0.671875,2.39063 z m -1.078125,-0.125 q 0,-1.07812 -0.46875,-1.6875 -0.453125,-0.625 -1.25,-0.625 -0.984375,0 -1.46875,0.85938 v 3.03125 q 0.484375,0.875 1.484375,0.875 0.78125,0 1.234375,-0.60937 0.46875,-0.625 0.46875,-1.84376 z m 8.078125,0.125 q 0,1.4375 -0.65625,2.32813 -0.65625,0.89063 -1.796875,0.89063 -1.15625,0 -1.8125,-0.73438 v 3.04688 h -1.078125 v -8.78126 h 0.984375 l 0.04687,0.70313 q 0.671875,-0.8125 1.84375,-0.8125 1.140625,0 1.796875,0.85937 0.671875,0.85938 0.671875,2.39063 z m -1.078125,-0.125 q 0,-1.07812 -0.46875,-1.6875 -0.453125,-0.625 -1.25,-0.625 -0.984375,0 -1.46875,0.85938 v 3.03125 q 0.484375,0.875 1.484375,0.875 0.78125,0 1.234375,-0.60937 0.46875,-0.625 0.46875,-1.84376 z m 3.90625,3.21876 h -1.078125 v -9 h 1.078125 z m 3,0 h -1.078125 v -6.34376 h 1.078125 z m -1.171875,-8.01563 q 0,-0.26563 0.15625,-0.45313 0.171875,-0.1875 0.484375,-0.1875 0.3125,0 0.46875,0.1875 0.171875,0.1875 0.171875,0.45313 0,0.25 -0.171875,0.4375 -0.15625,0.17187 -0.46875,0.17187 -0.3125,0 -0.484375,-0.17187 -0.15625,-0.1875 -0.15625,-0.4375 z m 5.53125,7.25 q 0.578125,0 1.015625,-0.34375 0.4375,-0.35938 0.48438,-0.89062 h 1.03125 q -0.0312,0.54687 -0.39063,1.04687 -0.34375,0.48437 -0.92187,0.78125 -0.562505,0.29688 -1.218755,0.29688 -1.296875,0 -2.0625,-0.85938 -0.75,-0.875 -0.75,-2.375 v -0.1875 q 0,-0.92188 0.328125,-1.64062 0.34375,-0.71876 0.96875,-1.10938 0.640625,-0.40625 1.515625,-0.40625 1.062505,0 1.765625,0.64063 0.71875,0.625 0.76563,1.65624 h -1.03125 q -0.0469,-0.625 -0.46875,-1.01562 -0.42188,-0.39062 -1.031255,-0.39062 -0.828125,0 -1.28125,0.59374 -0.453125,0.59376 -0.453125,1.71876 v 0.20312 q 0,1.09375 0.453125,1.6875 0.453125,0.59375 1.28125,0.59375 z m 7.375005,0.76563 q -0.0937,-0.1875 -0.15625,-0.67188 -0.75,0.79688 -1.79688,0.79688 -0.9375,0 -1.54687,-0.53126 -0.59375,-0.53124 -0.59375,-1.35937 0,-0.98437 0.75,-1.53125 0.75,-0.54688 2.125,-0.54688 h 1.04687 v -0.5 q 0,-0.5625 -0.34375,-0.89062 -0.32812,-0.34375 -1,-0.34375 -0.57812,0 -0.96875,0.29687 -0.39062,0.28126 -0.39062,0.70313 h -1.09375 q 0,-0.48437 0.32812,-0.92187 0.34375,-0.4375 0.92188,-0.6875 0.57812,-0.26563 1.26562,-0.26563 1.10938,0 1.71875,0.54687 0.625,0.54688 0.65625,1.5 v 2.92188 q 0,0.875 0.21875,1.39062 v 0.0938 z m -1.79688,-0.82813 q 0.51563,0 0.96875,-0.26563 0.45313,-0.26562 0.65625,-0.6875 V 80.26568 H 74.7673 q -2,0 -2,1.17187 0,0.5 0.34375,0.79688 0.34375,0.28125 0.875,0.28125 z m 6.35938,-7.04687 v 1.53124 h 1.17187 v 0.84376 h -1.17187 v 3.92187 q 0,0.39063 0.15625,0.57813 0.15625,0.1875 0.53125,0.1875 0.1875,0 0.51562,-0.0625 v 0.875 q -0.42187,0.125 -0.82812,0.125 -0.71875,0 -1.09375,-0.4375 -0.375,-0.45313 -0.375,-1.26563 v -3.92187 h -1.15625 v -0.84376 h 1.15625 v -1.53124 z m 3.70312,7.875 h -1.07812 v -6.34376 h 1.07812 z m -1.17187,-8.01563 q 0,-0.26563 0.15625,-0.45313 0.17187,-0.1875 0.48437,-0.1875 0.3125,0 0.46875,0.1875 0.17188,0.1875 0.17188,0.45313 0,0.25 -0.17188,0.4375 -0.15625,0.17187 -0.46875,0.17187 -0.3125,0 -0.48437,-0.17187 -0.15625,-0.1875 -0.15625,-0.4375 z m 2.70312,4.78125 q 0,-0.92188 0.35938,-1.67188 0.375,-0.75 1.03125,-1.14062 0.65625,-0.40625 1.48437,-0.40625 1.29688,0 2.09375,0.89063 0.8125,0.89062 0.8125,2.39062 v 0.0781 q 0,0.92188 -0.35937,1.65626 -0.35938,0.73437 -1.01563,1.15624 -0.65625,0.40626 -1.51562,0.40626 -1.28125,0 -2.09375,-0.89063 -0.79688,-0.90625 -0.79688,-2.39063 z m 1.09375,0.14062 q 0,1.04688 0.48438,1.6875 0.5,0.64063 1.3125,0.64063 0.82812,0 1.3125,-0.64063 0.48437,-0.65624 0.48437,-1.82812 0,-1.03125 -0.5,-1.67188 -0.48437,-0.65624 -1.3125,-0.65624 -0.79687,0 -1.29687,0.64062 -0.48438,0.625 -0.48438,1.82812 z m 7.21875,-3.25 0.0312,0.79688 q 0.73438,-0.90625 1.90625,-0.90625 2.01562,0 2.03125,2.26563 v 4.1875 h -1.09375 v -4.20313 q 0,-0.67187 -0.3125,-1 -0.29687,-0.32813 -0.95312,-0.32813 -0.53125,0 -0.9375,0.28126 -0.39063,0.28124 -0.60938,0.73437 v 4.51563 h -1.07812 v -6.34376 z m 9.67187,4.65626 q 0,-0.4375 -0.34375,-0.67188 -0.32812,-0.25 -1.15625,-0.42188 -0.8125,-0.17187 -1.29687,-0.42187 -0.48438,-0.25 -0.71875,-0.57813 -0.21875,-0.34374 -0.21875,-0.8125 0,-0.78124 0.65625,-1.3125 0.65625,-0.54687 1.6875,-0.54687 1.07812,0 1.73437,0.5625 0.67188,0.54687 0.67188,1.40625 h -1.07813 q 0,-0.4375 -0.39062,-0.75 -0.375,-0.32812 -0.9375,-0.32812 -0.59375,0 -0.9375,0.26562 -0.32813,0.25 -0.32813,0.65625 0,0.39063 0.3125,0.59375 0.3125,0.20312 1.125,0.39062 0.8125,0.17188 1.3125,0.42188 0.5,0.25 0.73438,0.60938 0.25,0.35937 0.25,0.85937 0,0.85937 -0.6875,1.375 -0.67188,0.51563 -1.75,0.51563 -0.76563,0 -1.35938,-0.26563 -0.57812,-0.28125 -0.90625,-0.76563 -0.32812,-0.48437 -0.32812,-1.04687 h 1.07812 q 0.0312,0.54687 0.4375,0.875 0.40625,0.3125 1.07813,0.3125 0.60937,0 0.98437,-0.25 0.375,-0.25 0.375,-0.67187 z"
     id="path301"
     inkscape:connector-curvature="0"
     style="fill:#666666;fill-rule:nonzero" />
  <path
     d="m 40.48605,100.43231 2.796875,6.95315 2.78125,-6.95315 h 1.46875 v 8.5313 h -1.125 v -3.32815 l 0.109375,-3.57815 -2.8125,6.9063 h -0.859375 l -2.796875,-6.89065 0.109375,3.5625 v 3.32815 h -1.125 v -8.5313 z m 8.09375,5.2969 q 0,-0.9219 0.359375,-1.6719 0.375,-0.75 1.03125,-1.1406 0.65625,-0.40625 1.484375,-0.40625 1.296875,0 2.09375,0.89065 0.8125,0.8906 0.8125,2.3906 v 0.0781 q 0,0.9219 -0.359375,1.6563 -0.359375,0.73435 -1.015625,1.1562 -0.65625,0.4063 -1.515625,0.4063 -1.28125,0 -2.09375,-0.89065 -0.796875,-0.90625 -0.796875,-2.39065 z m 1.09375,0.1406 q 0,1.0469 0.484375,1.6875 0.5,0.64065 1.3125,0.64065 0.828125,0 1.3125,-0.64065 0.484375,-0.6562 0.484375,-1.8281 0,-1.03125 -0.5,-1.6719 -0.484375,-0.6562 -1.3125,-0.6562 -0.796875,0 -1.296875,0.6406 -0.484375,0.625 -0.484375,1.8281 z m 11.5625,0 q 0,1.45315 -0.671875,2.3438 -0.65625,0.875 -1.78125,0.875 -1.203125,0 -1.859375,-0.8594 l -0.0625,0.7344 h -0.984375 v -9 H 56.9548 v 3.35935 q 0.65625,-0.8125 1.8125,-0.8125 1.15625,0 1.8125,0.875 0.65625,0.85935 0.65625,2.39065 z m -1.078125,-0.125 q 0,-1.10935 -0.4375,-1.7031 -0.421875,-0.6094 -1.21875,-0.6094 -1.078125,0 -1.546875,0.9844 v 2.75 q 0.5,1 1.546875,1 0.78125,0 1.21875,-0.6094 0.4375,-0.60935 0.4375,-1.8125 z m 3.890625,3.2188 h -1.078125 v -6.3438 h 1.078125 z m -1.171875,-8.01565 q 0,-0.26565 0.15625,-0.45315 0.171875,-0.1875 0.484375,-0.1875 0.3125,0 0.46875,0.1875 0.171875,0.1875 0.171875,0.45315 0,0.25 -0.171875,0.4375 -0.15625,0.17185 -0.46875,0.17185 -0.3125,0 -0.484375,-0.17185 -0.15625,-0.1875 -0.15625,-0.4375 z m 4.171875,8.01565 h -1.078125 v -9 h 1.078125 z m 4.45313,0.125 q -1.29688,0 -2.10938,-0.8438 -0.796875,-0.85935 -0.796875,-2.2812 v -0.1875 q 0,-0.95315 0.359375,-1.6875 0.35938,-0.75 1,-1.1563 0.65625,-0.42185 1.40625,-0.42185 1.23438,0 1.92188,0.8125 0.6875,0.8125 0.6875,2.32815 v 0.4531 h -4.29688 q 0.0312,0.9375 0.54688,1.5156 0.53125,0.57815 1.34375,0.57815 0.5625,0 0.95312,-0.23435 0.40625,-0.2344 0.71875,-0.625 l 0.65625,0.5156 q -0.79687,1.2344 -2.39062,1.2344 z m -0.14063,-5.6875 q -0.65625,0 -1.10937,0.48435 -0.4375,0.46875 -0.53125,1.32815 h 3.17187 v -0.0781 q -0.0469,-0.82815 -0.45312,-1.28125 -0.39063,-0.4531 -1.07813,-0.4531 z m 11.39063,3.3281 h -3.57813 l -0.79687,2.2344 h -1.15625 l 3.25,-8.5313 h 0.98437 l 3.26563,8.5313 h -1.15625 z m -3.23438,-0.9219 h 2.90625 l -1.45312,-3.98435 z m 11.70313,0.0625 q 0,1.4375 -0.65625,2.32815 -0.65625,0.89065 -1.79688,0.89065 -1.15625,0 -1.8125,-0.7344 v 3.0469 h -1.07812 v -8.7813 h 0.98437 l 0.0469,0.70315 q 0.67187,-0.8125 1.84375,-0.8125 1.14062,0 1.79687,0.85935 0.67188,0.8594 0.67188,2.39065 z m -1.07813,-0.125 q 0,-1.0781 -0.46875,-1.6875 -0.45312,-0.625 -1.25,-0.625 -0.98437,0 -1.46875,0.8594 v 3.03125 q 0.48438,0.875 1.48438,0.875 0.78125,0 1.23437,-0.60935 0.46875,-0.625 0.46875,-1.8438 z m 8.07812,0.125 q 0,1.4375 -0.65625,2.32815 -0.65624,0.89065 -1.79687,0.89065 -1.15625,0 -1.8125,-0.7344 v 3.0469 h -1.07812 v -8.7813 h 0.98437 l 0.0469,0.70315 q 0.67187,-0.8125 1.84375,-0.8125 1.14062,0 1.79687,0.85935 0.67187,0.8594 0.67187,2.39065 z m -1.07812,-0.125 q 0,-1.0781 -0.46875,-1.6875 -0.45312,-0.625 -1.25,-0.625 -0.98437,0 -1.46875,0.8594 v 3.03125 q 0.48438,0.875 1.48438,0.875 0.78125,0 1.23437,-0.60935 0.46875,-0.625 0.46875,-1.8438 z m 6.42187,1.5313 q 0,-0.4375 -0.34375,-0.6719 -0.32812,-0.25 -1.15625,-0.4219 -0.8125,-0.17185 -1.29687,-0.42185 -0.48438,-0.25 -0.71875,-0.57815 -0.21875,-0.3437 -0.21875,-0.8125 0,-0.7812 0.65625,-1.3125 0.65625,-0.54685 1.6875,-0.54685 1.07812,0 1.73437,0.5625 0.67188,0.54685 0.67188,1.40625 h -1.07813 q 0,-0.4375 -0.39062,-0.75 -0.375,-0.3281 -0.9375,-0.3281 -0.59375,0 -0.9375,0.2656 -0.32813,0.25 -0.32813,0.65625 0,0.39065 0.3125,0.59375 0.3125,0.2031 1.125,0.3906 0.8125,0.1719 1.3125,0.4219 0.5,0.25 0.73438,0.6094 0.25,0.35935 0.25,0.85935 0,0.85935 -0.6875,1.375 -0.67188,0.51565 -1.75,0.51565 -0.76563,0 -1.35938,-0.26565 -0.57812,-0.28125 -0.90625,-0.76565 -0.32812,-0.48435 -0.32812,-1.04685 h 1.07812 q 0.0312,0.54685 0.4375,0.875 0.40625,0.3125 1.07813,0.3125 0.60937,0 0.98437,-0.25 0.375,-0.25 0.375,-0.67185 z"
     id="path305"
     inkscape:connector-curvature="0"
     style="fill:#666666;fill-rule:nonzero" />
  <path
     d="m 14.25168,138.08341 h -1.125 v -8.53126 h 1.125 z m 4.359373,-3.21876 q 0,-1.46874 0.6875,-2.34374 0.6875,-0.89064 1.8125,-0.89064 1.109377,0 1.765627,0.75 v -3.29686 h 1.078123 v 9 h -1 l -0.04687,-0.6875 q -0.65625,0.8125 -1.8125,0.8125 -1.09375,0 -1.796877,-0.90626 -0.6875,-0.90624 -0.6875,-2.35938 z m 1.078127,0.125 q 0,1.07812 0.4375,1.6875 0.453123,0.60936 1.234373,0.60936 1.03125,0 1.515627,-0.9375 v -2.90624 q -0.484377,-0.89062 -1.5,-0.89062 -0.796877,0 -1.25,0.60936 -0.4375,0.6094 -0.4375,1.82814 z m 5.890623,-0.14064 q 0,-0.92186 0.359377,-1.67186 0.375,-0.75 1.03125,-1.14064 0.65625,-0.40624 1.484373,-0.40624 1.296877,0 2.09375,0.89064 0.8125,0.8906 0.8125,2.3906 v 0.0781 q 0,0.92186 -0.359373,1.65626 -0.359377,0.73436 -1.015627,1.15624 -0.65625,0.40626 -1.515623,0.40626 -1.28125,0 -2.09375,-0.89064 -0.796877,-0.90626 -0.796877,-2.39062 z m 1.09375,0.14064 q 0,1.04686 0.484377,1.6875 0.5,0.64062 1.3125,0.64062 0.828123,0 1.3125,-0.64062 0.484373,-0.65624 0.484373,-1.82814 0,-1.03124 -0.5,-1.67186 -0.484373,-0.65624 -1.3125,-0.65624 -0.796873,0 -1.296873,0.6406 -0.484377,0.625 -0.484377,1.82814 z m 7.218747,-3.25 0.03125,0.79686 q 0.734375,-0.90624 1.90625,-0.90624 2.015625,0 2.03125,2.26564 v 4.1875 H 36.7673 v -4.20314 q 0,-0.67186 -0.3125,-1 -0.296875,-0.32812 -0.953125,-0.32812 -0.53125,0 -0.9375,0.28126 -0.390625,0.28124 -0.609375,0.73436 v 4.51564 h -1.07812 v -6.34376 z m 6.640625,-2 -0.125,2.15626 h -0.75 v -2.8125 h 0.875 z m 2.8125,0.46876 v 1.53124 H 44.5173 v 0.84376 h -1.171875 v 3.92186 q 0,0.39064 0.15625,0.57814 0.15625,0.1875 0.53125,0.1875 0.1875,0 0.515625,-0.0625 v 0.875 q -0.421875,0.125 -0.828125,0.125 -0.71875,0 -1.09375,-0.4375 -0.375,-0.45314 -0.375,-1.26564 v -3.92186 h -1.15625 v -0.84376 h 1.15625 v -1.53124 z m 11.140625,6.375 1.21875,-4.84376 h 1.078125 l -1.84375,6.34376 h -0.875 l -1.546875,-4.8125 -1.5,4.8125 h -0.875 l -1.84375,-6.34376 h 1.078125 l 1.25,4.75 1.484375,-4.75 h 0.859375 z m 6.453125,-3.875 q -0.25,-0.0313 -0.53125,-0.0313 -1.078125,0 -1.453125,0.90626 v 4.5 h -1.078125 v -6.34376 h 1.046875 l 0.01563,0.73436 q 0.53125,-0.84374 1.515625,-0.84374 0.3125,0 0.484375,0.0781 z m 2.109375,5.375 h -1.078125 v -6.34376 h 1.078125 z m -1.171875,-8.01564 q 0,-0.26562 0.15625,-0.45312 0.171875,-0.1875 0.484375,-0.1875 0.3125,0 0.46875,0.1875 0.171875,0.1875 0.171875,0.45312 0,0.25 -0.171875,0.4375 -0.15625,0.17188 -0.46875,0.17188 -0.3125,0 -0.484375,-0.17188 -0.15625,-0.1875 -0.15625,-0.4375 z m 4.46875,0.14064 v 1.53124 H 67.5173 v 0.84376 h -1.171875 v 3.92186 q 0,0.39064 0.15625,0.57814 0.15625,0.1875 0.53125,0.1875 0.1875,0 0.515625,-0.0625 v 0.875 q -0.421875,0.125 -0.828125,0.125 -0.71875,0 -1.09375,-0.4375 -0.375,-0.45314 -0.375,-1.26564 v -3.92186 h -1.15625 v -0.84376 h 1.15625 v -1.53124 z m 5.156255,8 q -1.29688,0 -2.10938,-0.84376 -0.796875,-0.85938 -0.796875,-2.28124 v -0.1875 q 0,-0.95314 0.359375,-1.6875 0.35938,-0.75 1,-1.15626 0.65625,-0.42188 1.40625,-0.42188 1.23438,0 1.92188,0.8125 0.6875,0.8125 0.6875,2.32814 v 0.4531 h -4.29688 q 0.0312,0.9375 0.54688,1.51564 0.53125,0.57812 1.34375,0.57812 0.5625,0 0.95312,-0.23436 0.40625,-0.2344 0.71875,-0.625 l 0.65625,0.5156 q -0.79687,1.2344 -2.39062,1.2344 z m -0.14063,-5.6875 q -0.65625,0 -1.10937,0.48436 -0.4375,0.46874 -0.53125,1.32814 h 3.17187 v -0.0781 q -0.0469,-0.82812 -0.45312,-1.28126 -0.39063,-0.4531 -1.07813,-0.4531 z m 7.6875,5.5625 h -1.07812 v -6.34376 h 1.07812 z m -1.17187,-8.01564 q 0,-0.26562 0.15625,-0.45312 0.17187,-0.1875 0.48437,-0.1875 0.3125,0 0.46875,0.1875 0.17188,0.1875 0.17188,0.45312 0,0.25 -0.17188,0.4375 -0.15625,0.17188 -0.46875,0.17188 -0.3125,0 -0.48437,-0.17188 -0.15625,-0.1875 -0.15625,-0.4375 z m 4.01562,1.67188 0.0312,0.79686 q 0.73438,-0.90624 1.90625,-0.90624 2.01563,0 2.03125,2.26564 v 4.1875 h -1.09375 v -4.20314 q 0,-0.67186 -0.3125,-1 -0.29687,-0.32812 -0.95312,-0.32812 -0.53125,0 -0.9375,0.28126 -0.39063,0.28124 -0.60938,0.73436 v 4.51564 h -1.07812 v -6.34376 z m 15.45312,5.21876 q -0.43749,0.625 -1.21874,0.9375 -0.78125,0.3125 -1.8125,0.3125 -1.03125,0 -1.84375,-0.4844 -0.8125,-0.5 -1.25,-1.40624 -0.4375,-0.90626 -0.45313,-2.09376 v -0.73436 q 0,-1.9375 0.89063,-3 0.90625,-1.0625 2.53125,-1.0625 1.34375,0 2.15625,0.6875 0.8125,0.6875 0.99999,1.9375 h -1.12499 q -0.32813,-1.6875 -2.01563,-1.6875 -1.14062,0 -1.71875,0.79686 -0.57812,0.78126 -0.59375,2.2969 v 0.6875 q 0,1.4375 0.65625,2.29686 0.65625,0.84374 1.78125,0.84374 0.625,0 1.09375,-0.1406 0.48438,-0.14064 0.79688,-0.4844 v -1.90624 h -1.96875 v -0.92186 h 3.09374 z m 1.23438,-2.1094 q 0,-0.92186 0.35937,-1.67186 0.375,-0.75 1.03125,-1.14064 0.65625,-0.40624 1.48438,-0.40624 1.29687,0 2.09375,0.89064 0.8125,0.8906 0.8125,2.3906 v 0.0781 q 0,0.92186 -0.35938,1.65626 -0.35937,0.73436 -1.01562,1.15624 -0.65625,0.40626 -1.51563,0.40626 -1.28125,0 -2.09375,-0.89064 -0.79687,-0.90626 -0.79687,-2.39062 z m 1.09375,0.14064 q 0,1.04686 0.48437,1.6875 0.5,0.64062 1.3125,0.64062 0.82813,0 1.3125,-0.64062 0.48438,-0.65624 0.48438,-1.82814 0,-1.03124 -0.5,-1.67186 -0.48438,-0.65624 -1.3125,-0.65624 -0.79688,0 -1.29688,0.6406 -0.48437,0.625 -0.48437,1.82814 z"
     id="path309"
     inkscape:connector-curvature="0"
     style="fill:#666666;fill-rule:nonzero" />
  <path
     d="m 102.54855,183.85191 q 0,-1.5313 0.3125,-2.45315 0.3125,-0.9375 0.92187,-1.4375 0.625,-0.5 1.5625,-0.5 0.6875,0 1.20313,0.28125 0.53125,0.28125 0.875,0.8125 0.34375,0.5156 0.53125,1.2656 0.1875,0.75 0.1875,2.0313 0,1.5156 -0.3125,2.4375 -0.29688,0.92185 -0.92188,1.4375 -0.60937,0.5 -1.5625,0.5 -1.23437,0 -1.95312,-0.89065 -0.84375,-1.0625 -0.84375,-3.48435 z m 1.07812,0 q 0,2.10935 0.5,2.8125 0.5,0.7031 1.21875,0.7031 0.73438,0 1.21875,-0.7031 0.5,-0.70315 0.5,-2.8125 0,-2.125 -0.5,-2.8125 -0.48437,-0.70315 -1.23437,-0.70315 -0.71875,0 -1.15625,0.60935 -0.54688,0.7813 -0.54688,2.9063 z m 6.125,-2.2969 q 0,-0.9219 0.45313,-1.5625 0.46875,-0.6406 1.34375,-0.6406 0.8125,0 1.34375,0.5781 0.53125,0.5781 0.53125,1.6875 0,1.09375 -0.54688,1.6875 -0.53125,0.5781 -1.3125,0.5781 -0.78125,0 -1.29687,-0.5781 -0.51563,-0.5781 -0.51563,-1.75 z m 1.82813,-1.4844 q -0.39063,0 -0.65625,0.3438 -0.25,0.3437 -0.25,1.25 0,0.8281 0.25,1.17185 0.26562,0.32815 0.65625,0.32815 0.40625,0 0.65625,-0.3438 0.26562,-0.3437 0.26562,-1.23435 0,-0.84375 -0.26562,-1.17185 -0.26563,-0.3438 -0.65625,-0.3438 z m 0,8.32815 4.70312,-9.04685 h 0.85938 l -4.6875,9.04685 z m 3.71875,-2.32815 q 0,-0.92185 0.45312,-1.5625 0.46875,-0.6406 1.35938,-0.6406 0.8125,0 1.34375,0.5781 0.53125,0.5625 0.53125,1.6875 0,1.0938 -0.54688,1.6875 -0.53125,0.57815 -1.32812,0.57815 -0.76563,0 -1.29688,-0.57815 -0.51562,-0.5781 -0.51562,-1.75 z m 1.84375,-1.48435 q -0.40625,0 -0.67188,0.34375 -0.25,0.34375 -0.25,1.25 0,0.8125 0.26563,1.15625 0.26562,0.34375 0.65625,0.34375 0.39062,0 0.65625,-0.34375 0.26562,-0.34375 0.26562,-1.25 0,-0.82815 -0.26562,-1.15625 -0.26563,-0.34375 -0.65625,-0.34375 z"
     id="path311"
     inkscape:connector-curvature="0"
     style="fill:#666666;fill-rule:nonzero" />
  <path
     d="m 211.87779,187.07061 v 1.01565 h -5.6875 q 0,-0.375 0.125,-0.73435 0.21875,-0.57815 0.6875,-1.14065 0.48437,-0.5625 1.39062,-1.29685 1.40625,-1.1563 1.89063,-1.82815 0.5,-0.67185 0.5,-1.26565 0,-0.625 -0.45313,-1.04685 -0.45312,-0.4375 -1.17187,-0.4375 -0.76563,0 -1.21875,0.45315 -0.45313,0.4531 -0.46875,1.2656 l -1.07813,-0.1094 q 0.10938,-1.2187 0.82813,-1.8437 0.73437,-0.64065 1.96875,-0.64065 1.23437,0 1.95312,0.6875 0.71875,0.6875 0.71875,1.70315 0,0.5156 -0.21875,1.0156 -0.20312,0.4844 -0.70312,1.0469 -0.48438,0.54685 -1.60938,1.5 -0.95312,0.79685 -1.23437,1.0937 -0.26563,0.2813 -0.4375,0.5625 z m 1.45312,-3.2187 q 0,-1.5313 0.3125,-2.45315 0.3125,-0.9375 0.92188,-1.4375 0.625,-0.5 1.5625,-0.5 0.6875,0 1.20312,0.28125 0.53125,0.28125 0.875,0.8125 0.34375,0.5156 0.53125,1.2656 0.1875,0.75 0.1875,2.0313 0,1.5156 -0.3125,2.4375 -0.29687,0.92185 -0.92187,1.4375 -0.60938,0.5 -1.5625,0.5 -1.23438,0 -1.95313,-0.89065 -0.84375,-1.0625 -0.84375,-3.48435 z m 1.07813,0 q 0,2.10935 0.5,2.8125 0.5,0.7031 1.21875,0.7031 0.73437,0 1.21875,-0.7031 0.5,-0.70315 0.5,-2.8125 0,-2.125 -0.5,-2.8125 -0.48438,-0.70315 -1.23438,-0.70315 -0.71875,0 -1.15625,0.60935 -0.54687,0.7813 -0.54687,2.9063 z m 6.125,-2.2969 q 0,-0.9219 0.45312,-1.5625 0.46875,-0.6406 1.34375,-0.6406 0.8125,0 1.34375,0.5781 0.53125,0.5781 0.53125,1.6875 0,1.09375 -0.54687,1.6875 -0.53125,0.5781 -1.3125,0.5781 -0.78125,0 -1.29688,-0.5781 -0.51562,-0.5781 -0.51562,-1.75 z m 1.82812,-1.4844 q -0.39062,0 -0.65625,0.3438 -0.25,0.3437 -0.25,1.25 0,0.8281 0.25,1.17185 0.26563,0.32815 0.65625,0.32815 0.40625,0 0.65625,-0.3438 0.26563,-0.3437 0.26563,-1.23435 0,-0.84375 -0.26563,-1.17185 -0.26562,-0.3438 -0.65625,-0.3438 z m 0,8.32815 4.70314,-9.04685 h 0.85938 l -4.68752,9.04685 z m 3.71877,-2.32815 q 0,-0.92185 0.45312,-1.5625 0.46875,-0.6406 1.35938,-0.6406 0.8125,0 1.34375,0.5781 0.53125,0.5625 0.53125,1.6875 0,1.0938 -0.54688,1.6875 -0.53125,0.57815 -1.32812,0.57815 -0.76563,0 -1.29688,-0.57815 -0.51562,-0.5781 -0.51562,-1.75 z m 1.84375,-1.48435 q -0.40625,0 -0.67188,0.34375 -0.25,0.34375 -0.25,1.25 0,0.8125 0.26563,1.15625 0.26562,0.34375 0.65625,0.34375 0.39062,0 0.65625,-0.34375 0.26562,-0.34375 0.26562,-1.25 0,-0.82815 -0.26562,-1.15625 -0.26563,-0.34375 -0.65625,-0.34375 z"
     id="path313"
     inkscape:connector-curvature="0"
     style="fill:#666666;fill-rule:nonzero" />
  <path
     d="m 316.98828,188.08626 v -2.0625 h -3.71875 v -0.96875 l 3.92187,-5.5625 h 0.85938 v 5.5625 h 1.15625 v 0.96875 h -1.15625 v 2.0625 z m 0,-3.03125 v -3.8594 l -2.6875,3.8594 z m 3.625,-1.2031 q 0,-1.5313 0.3125,-2.45315 0.3125,-0.9375 0.92187,-1.4375 0.625,-0.5 1.5625,-0.5 0.6875,0 1.20313,0.28125 0.53125,0.28125 0.875,0.8125 0.34375,0.5156 0.53125,1.2656 0.1875,0.75 0.1875,2.0313 0,1.5156 -0.3125,2.4375 -0.29688,0.92185 -0.92188,1.4375 -0.60937,0.5 -1.5625,0.5 -1.23437,0 -1.95312,-0.89065 -0.84375,-1.0625 -0.84375,-3.48435 z m 1.07812,0 q 0,2.10935 0.5,2.8125 0.5,0.7031 1.21875,0.7031 0.73438,0 1.21875,-0.7031 0.5,-0.70315 0.5,-2.8125 0,-2.125 -0.5,-2.8125 -0.48437,-0.70315 -1.23437,-0.70315 -0.71875,0 -1.15625,0.60935 -0.54688,0.7813 -0.54688,2.9063 z m 6.125,-2.2969 q 0,-0.9219 0.45313,-1.5625 0.46875,-0.6406 1.34375,-0.6406 0.8125,0 1.34375,0.5781 0.53125,0.5781 0.53125,1.6875 0,1.09375 -0.54688,1.6875 -0.53125,0.5781 -1.3125,0.5781 -0.78125,0 -1.29687,-0.5781 -0.51563,-0.5781 -0.51563,-1.75 z m 1.82813,-1.4844 q -0.39063,0 -0.65625,0.3438 -0.25,0.3437 -0.25,1.25 0,0.8281 0.25,1.17185 0.26562,0.32815 0.65625,0.32815 0.40625,0 0.65625,-0.3438 0.26562,-0.3437 0.26562,-1.23435 0,-0.84375 -0.26562,-1.17185 -0.26563,-0.3438 -0.65625,-0.3438 z m 0,8.32815 4.70312,-9.04685 h 0.85938 l -4.6875,9.04685 z m 3.71875,-2.32815 q 0,-0.92185 0.45312,-1.5625 0.46875,-0.6406 1.35938,-0.6406 0.8125,0 1.34375,0.5781 0.53125,0.5625 0.53125,1.6875 0,1.0938 -0.54688,1.6875 -0.53125,0.57815 -1.32812,0.57815 -0.76563,0 -1.29688,-0.57815 -0.51562,-0.5781 -0.51562,-1.75 z m 1.84375,-1.48435 q -0.40625,0 -0.67188,0.34375 -0.25,0.34375 -0.25,1.25 0,0.8125 0.26563,1.15625 0.26562,0.34375 0.65625,0.34375 0.39062,0 0.65625,-0.34375 0.26562,-0.34375 0.26562,-1.25 0,-0.82815 -0.26562,-1.15625 -0.26563,-0.34375 -0.65625,-0.34375 z"
     id="path315"
     inkscape:connector-curvature="0"
     style="fill:#666666;fill-rule:nonzero" />
  <path
     d="m 199.46402,226.31795 c 0,-0.5523 0.44773,-1 1,-1 h 10 c 0.55227,0 1,0.4477 1,1 v 10 c 0,0.55231 -0.44773,1 -1,1 h -10 c -0.55227,0 -1,-0.44769 -1,-1 z"
     id="path329"
     inkscape:connector-curvature="0"
     style="fill:#1ba29c;fill-rule:nonzero" />
  <path
     d="m 225.51089,234.30231 v 1.01564 h -5.6875 q 0,-0.375 0.125,-0.73437 0.21876,-0.57813 0.6875,-1.14063 0.48438,-0.5625 1.39063,-1.29687 1.40625,-1.15627 1.89063,-1.82813 0.5,-0.67187 0.5,-1.26564 0,-0.625 -0.45313,-1.04686 -0.45313,-0.4375 -1.17187,-0.4375 -0.76563,0 -1.21876,0.45313 -0.45312,0.45313 -0.46874,1.26563 l -1.07813,-0.1094 q 0.10937,-1.21873 0.82813,-1.84373 0.73437,-0.64063 1.96874,-0.64063 1.23438,0 1.95313,0.6875 0.71875,0.6875 0.71875,1.70313 0,0.51563 -0.21875,1.01563 -0.20313,0.48437 -0.70313,1.04687 -0.48437,0.54687 -1.60937,1.5 -0.95313,0.79687 -1.23437,1.09373 -0.26563,0.28127 -0.4375,0.5625 z m 1.45313,-3.21873 q 0,-1.53127 0.3125,-2.45313 0.3125,-0.9375 0.92187,-1.4375 0.625,-0.5 1.5625,-0.5 0.6875,0 1.20313,0.28126 0.53125,0.28124 0.875,0.8125 0.34375,0.5156 0.53125,1.2656 0.1875,0.75 0.1875,2.03127 0,1.51563 -0.3125,2.4375 -0.29688,0.92187 -0.92188,1.4375 -0.60937,0.5 -1.5625,0.5 -1.23437,0 -1.95312,-0.89063 -0.84375,-1.0625 -0.84375,-3.48437 z m 1.07813,0 q 0,2.10937 0.5,2.8125 0.5,0.70313 1.21874,0.70313 0.73438,0 1.21876,-0.70313 0.5,-0.70313 0.5,-2.8125 0,-2.125 -0.5,-2.8125 -0.48438,-0.70313 -1.23438,-0.70313 -0.71875,0 -1.15625,0.60936 -0.54687,0.78127 -0.54687,2.90627 z m 9.89062,4.23437 h -1.04688 v -6.71874 q -0.39062,0.35937 -1.01562,0.73437 -0.60938,0.35937 -1.09375,0.53123 v -1.0156 q 0.875,-0.4219 1.53125,-1 0.67188,-0.59376 0.95312,-1.15626 h 0.67188 z m 4.65625,-4.65624 q -0.65625,-0.25 -0.98437,-0.6875 -0.3125,-0.45313 -0.3125,-1.0625 0,-0.9375 0.67187,-1.57813 0.6875,-0.64063 1.79687,-0.64063 1.125,0 1.8125,0.65626 0.6875,0.65624 0.6875,1.59374 0,0.59376 -0.3125,1.03126 -0.3125,0.4375 -0.95312,0.6875 0.79688,0.25 1.20312,0.8281 0.40626,0.57814 0.40626,1.375 0,1.09377 -0.78126,1.84377 -0.76562,0.75 -2.04687,0.75 -1.26563,0 -2.04687,-0.75 -0.78126,-0.75 -0.78126,-1.875 0,-0.84377 0.42188,-1.40627 0.4375,-0.5625 1.21875,-0.7656 z m -0.21875,-1.7969 q 0,0.6094 0.39062,1 0.40626,0.39064 1.03126,0.39064 0.60937,0 1,-0.375 0.39062,-0.39064 0.39062,-0.95314 0,-0.5781 -0.40625,-0.96873 -0.40625,-0.40627 -1,-0.40627 -0.60937,0 -1.01563,0.39064 -0.39062,0.39063 -0.39062,0.92186 z m -0.32812,3.96877 q 0,0.45313 0.20312,0.875 0.21875,0.42187 0.64062,0.65623 0.42188,0.2344 0.90626,0.2344 0.75,0 1.23437,-0.4844 0.5,-0.48436 0.5,-1.23436 0,-0.76564 -0.5,-1.26564 -0.5,-0.5 -1.26563,-0.5 -0.75,0 -1.23437,0.5 -0.48437,0.4844 -0.48437,1.21877 z"
     id="path331"
     inkscape:connector-curvature="0"
     style="fill:#666666;fill-rule:nonzero" />
  <path
     d="M 1.3125,11.23437 H 0 V 1.28125 H 1.3125 Z M 13.25,9.48437 14.671875,3.84375 H 15.9375 l -2.140625,7.39062 h -1.03125 L 10.96875,5.625 l -1.75,5.60937 H 8.1875 L 6.046875,3.84375 h 1.25 L 8.765625,9.375 10.484375,3.84375 H 11.5 Z M 21.28125,4.96875 Q 21,4.92185 20.65625,4.92185 q -1.234375,0 -1.6875,1.0625 v 5.25 H 17.703125 V 3.84372 H 18.9375 l 0.01563,0.84375 q 0.625,-0.98437 1.765625,-0.98437 0.375,0 0.5625,0.0937 z m 2.796875,6.26562 H 22.8125 V 3.84375 h 1.265625 z M 22.71875,1.875 q 0,-0.3125 0.1875,-0.51563 0.1875,-0.21875 0.546875,-0.21875 0.375,0 0.5625,0.21875 0.203125,0.20313 0.203125,0.51563 0,0.3125 -0.203125,0.51562 -0.1875,0.20313 -0.5625,0.20313 -0.359375,0 -0.546875,-0.20313 Q 22.71875,2.1875 22.71875,1.875 Z m 4.703125,0.17187 v 1.79688 h 1.375 V 4.8125 h -1.375 v 4.59375 q 0,0.4375 0.1875,0.67187 0.1875,0.21875 0.625,0.21875 0.21875,0 0.609375,-0.0937 v 1.03125 q -0.5,0.14063 -0.96875,0.14063 -0.859375,0 -1.296875,-0.51563 Q 26.15625,10.34375 26.15625,9.40625 V 4.8125 H 24.8125 V 3.84375 h 1.34375 V 2.04687 Z m 6.359371,9.32813 q -1.515621,0 -2.453121,-0.98438 -0.9375,-1 -0.9375,-2.65625 V 7.51562 q 0,-1.10937 0.421875,-1.96875 0.421875,-0.875 1.171875,-1.35937 0.75,-0.48438 1.640621,-0.48438 1.4375,0 2.234374,0.95313 0.796876,0.9375 0.796876,2.71875 V 7.89062 H 31.65625 q 0.01563,1.09375 0.625,1.78125 0.625,0.67188 1.562496,0.67188 0.671874,0 1.125,-0.26563 0.46875,-0.28125 0.828124,-0.73437 l 0.765626,0.59375 q -0.921876,1.4375 -2.78125,1.4375 z m -0.15625,-6.64063 q -0.765621,0 -1.296871,0.5625 -0.515625,0.5625 -0.640625,1.5625 h 3.70312 v -0.0937 q -0.04687,-0.96875 -0.515624,-1.5 -0.46875,-0.53125 -1.25,-0.53125 z m 8.796874,-2.6875 v 1.79688 h 1.375 V 4.8125 h -1.375 v 4.59375 q 0,0.4375 0.1875,0.67187 0.1875,0.21875 0.625,0.21875 0.21875,0 0.609376,-0.0937 v 1.03125 q -0.5,0.14063 -0.96875,0.14063 -0.859376,0 -1.296876,-0.51563 Q 41.156246,10.3438 41.156246,9.4063 V 4.81255 h -1.34375 V 3.8438 h 1.34375 V 2.04692 Z m 4.546876,2.6875 q 0.84375,-1.03125 2.1875,-1.03125 2.34375,0 2.375,2.64063 v 4.89062 H 50.26562 V 6.34375 Q 50.25,5.54687 49.89062,5.17187 49.531246,4.78125 48.781246,4.78125 q -0.625,0 -1.09375,0.32812 -0.453126,0.32813 -0.71875,0.85938 v 5.26562 H 45.70312 v -10.5 h 1.265626 z m 9.8125,6.64063 q -1.515626,0 -2.453126,-0.98438 -0.9375,-1 -0.9375,-2.65625 V 7.51562 q 0,-1.10937 0.421876,-1.96875 0.421874,-0.875 1.171874,-1.35937 0.75,-0.48438 1.640626,-0.48438 1.4375,0 2.234374,0.95313 0.796876,0.9375 0.796876,2.71875 v 0.51562 h -5 q 0.01562,1.09375 0.625,1.78125 0.625,0.67188 1.5625,0.67188 0.671874,0 1.125,-0.26563 0.46875,-0.28125 0.828124,-0.73437 l 0.765626,0.59375 q -0.921876,1.4375 -2.78125,1.4375 z m -0.15625,-6.64063 q -0.765626,0 -1.296876,0.5625 -0.515624,0.5625 -0.640624,1.5625 h 3.703124 v -0.0937 q -0.04687,-0.96875 -0.515624,-1.5 -0.46875,-0.53125 -1.25,-0.53125 z m 7.703124,6.5 V 4.8125 H 63.156246 V 3.84375 H 64.32812 V 3.07812 q 0,-1.1875 0.625,-1.82812 0.640626,-0.65625 1.8125,-0.65625 0.4375,0 0.859376,0.10937 l -0.0625,1.03125 q -0.328126,-0.0625 -0.6875,-0.0625 -0.609376,0 -0.953126,0.35938 -0.328124,0.35937 -0.328124,1.03125 V 3.84375 H 67.17187 V 4.8125 h -1.578124 v 6.42187 z m 4.046876,-3.76562 q 0,-1.09375 0.421874,-1.95313 0.4375,-0.875 1.1875,-1.34375 0.76563,-0.46875 1.75,-0.46875 1.5,0 2.4375,1.04688 0.9375,1.04687 0.9375,2.78125 v 0.0937 q 0,1.07812 -0.42187,1.9375 -0.40625,0.84375 -1.1875,1.32812 -0.76563,0.48438 -1.75,0.48438 -1.51563,0 -2.45313,-1.04688 Q 68.374996,9.2812 68.374996,7.56245 Z M 69.64062,7.625 q 0,1.21875 0.5625,1.96875 0.57813,0.75 1.54688,0.75 0.95312,0 1.51562,-0.75 0.57813,-0.76563 0.57813,-2.125 Q 73.84375,6.25 73.26562,5.5 72.6875,4.73437 71.73437,4.73437 q -0.9375,0 -1.51562,0.75 -0.57813,0.75 -0.57813,2.14063 z m 8.4375,3.60937 H 76.8125 v -10.5 h 1.26562 z m 3,0 H 79.8125 v -10.5 h 1.26562 z M 82.375,7.46875 q 0,-1.09375 0.42187,-1.95313 0.4375,-0.875 1.1875,-1.34375 0.76563,-0.46875 1.75,-0.46875 1.5,0 2.4375,1.04688 0.9375,1.04687 0.9375,2.78125 v 0.0937 q 0,1.07812 -0.42187,1.9375 -0.40625,0.84375 -1.1875,1.32812 -0.76563,0.48438 -1.75,0.48438 -1.51563,0 -2.45313,-1.04688 Q 82.375,9.2812 82.375,7.56245 Z M 83.64062,7.625 q 0,1.21875 0.5625,1.96875 0.57813,0.75 1.54688,0.75 0.95312,0 1.51562,-0.75 0.57813,-0.76563 0.57813,-2.125 Q 87.84375,6.25 87.26562,5.5 86.6875,4.73437 85.73437,4.73437 q -0.9375,0 -1.51562,0.75 -0.57813,0.75 -0.57813,2.14063 z M 97.25,9.48437 98.67187,3.84375 h 1.26563 l -2.14063,7.39062 H 96.76562 L 94.96875,5.625 l -1.75,5.60937 H 92.1875 L 90.04687,3.84375 h 1.25 L 92.76562,9.375 94.48437,3.84375 H 95.5 Z m 5.82812,1.75 H 101.8125 V 3.84375 h 1.26562 z M 101.71875,1.875 q 0,-0.3125 0.1875,-0.51563 0.1875,-0.21875 0.54687,-0.21875 0.375,0 0.5625,0.21875 0.20313,0.20313 0.20313,0.51563 0,0.3125 -0.20313,0.51562 -0.1875,0.20313 -0.5625,0.20313 -0.35937,0 -0.54687,-0.20313 -0.1875,-0.20312 -0.1875,-0.51562 z m 4.1875,1.96875 0.0312,0.92187 q 0.85937,-1.0625 2.21875,-1.0625 2.34375,0 2.375,2.64063 v 4.89062 h -1.26563 V 6.34375 q -0.0156,-0.79688 -0.375,-1.17188 -0.35937,-0.39062 -1.10937,-0.39062 -0.625,0 -1.09375,0.32812 -0.45313,0.32813 -0.71875,0.85938 v 5.26562 h -1.26563 V 3.84375 Z m 6.5,3.625 q 0,-1.71875 0.79687,-2.73438 0.79688,-1.03125 2.125,-1.03125 1.34375,0 2.10938,0.95313 L 117.5,3.84375 h 1.15625 v 7.21875 q 0,1.4375 -0.85938,2.25 -0.84375,0.82812 -2.28125,0.82812 -0.79687,0 -1.5625,-0.34375 -0.76562,-0.32812 -1.17187,-0.92187 l 0.65625,-0.76563 q 0.8125,1 1.98437,1 0.92188,0 1.4375,-0.51562 0.53125,-0.51563 0.53125,-1.46875 V 10.5 q -0.76562,0.875 -2.07812,0.875 -1.29688,0 -2.10938,-1.04688 -0.79687,-1.04687 -0.79687,-2.85937 z m 1.26562,0.15625 q 0,1.25 0.51563,1.96875 0.51562,0.70312 1.4375,0.70312 1.20312,0 1.76562,-1.09375 v -3.375 q -0.59375,-1.04687 -1.75,-1.04687 -0.92187,0 -1.45312,0.71875 -0.51563,0.70312 -0.51563,2.125 z m 11.40625,3.60937 H 123.8125 V 3.84375 h 1.26562 z M 123.71875,1.875 q 0,-0.3125 0.1875,-0.51563 0.1875,-0.21875 0.54687,-0.21875 0.375,0 0.5625,0.21875 0.20313,0.20313 0.20313,0.51563 0,0.3125 -0.20313,0.51562 -0.1875,0.20313 -0.5625,0.20313 -0.35937,0 -0.54687,-0.20313 -0.1875,-0.20312 -0.1875,-0.51562 z m 4.1875,1.96875 0.0312,0.92187 q 0.85937,-1.0625 2.21875,-1.0625 2.34375,0 2.375,2.64063 v 4.89062 h -1.26563 V 6.34375 q -0.0156,-0.79688 -0.375,-1.17188 -0.35937,-0.39062 -1.10937,-0.39062 -0.625,0 -1.09375,0.32812 -0.45313,0.32813 -0.71875,0.85938 v 5.26562 h -1.26563 V 3.84375 Z M 145.25,9.92187 q -0.5,0.73438 -1.40625,1.09375 -0.90625,0.35938 -2.10938,0.35938 -1.21875,0 -2.17187,-0.5625 -0.9375,-0.57813 -1.45313,-1.625 -0.51562,-1.0625 -0.53125,-2.45313 V 5.875 q 0,-2.25 1.04688,-3.48438 1.0625,-1.25 2.95312,-1.25 1.5625,0 2.51563,0.79688 0.95312,0.79687 1.15625,2.26562 h -1.3125 q -0.35938,-1.98437 -2.34375,-1.98437 -1.32813,0 -2.01563,0.9375 -0.67187,0.92187 -0.67187,2.67187 v 0.8125 q 0,1.6875 0.76562,2.67188 0.76563,0.98437 2.0625,0.98437 0.75,0 1.29688,-0.15625 0.5625,-0.17187 0.92187,-0.5625 V 7.34375 h -2.3125 V 6.28125 H 145.25 Z m 2.125,-2.45312 q 0,-1.09375 0.42187,-1.95313 0.4375,-0.875 1.1875,-1.34375 0.76563,-0.46875 1.75,-0.46875 1.5,0 2.4375,1.04688 0.9375,1.04687 0.9375,2.78125 v 0.0937 q 0,1.07812 -0.42187,1.9375 -0.40625,0.84375 -1.1875,1.32812 -0.76563,0.48438 -1.75,0.48438 -1.51563,0 -2.45313,-1.04688 Q 147.375,9.2812 147.375,7.56245 Z m 1.26562,0.15625 q 0,1.21875 0.5625,1.96875 0.57813,0.75 1.54688,0.75 0.95312,0 1.51562,-0.75 0.57813,-0.76563 0.57813,-2.125 0,-1.21875 -0.57813,-1.96875 -0.57812,-0.76563 -1.53125,-0.76563 -0.9375,0 -1.51562,0.75 -0.57813,0.75 -0.57813,2.14063 z m 7.09375,2.95312 q 0,-0.32812 0.1875,-0.54687 0.20313,-0.21875 0.59375,-0.21875 0.39063,0 0.59375,0.21875 0.20313,0.21875 0.20313,0.54687 0,0.3125 -0.20313,0.53125 -0.20312,0.20313 -0.59375,0.20313 -0.39062,0 -0.59375,-0.20313 -0.1875,-0.21875 -0.1875,-0.53125 z m 0,-6 q 0,-0.32812 0.1875,-0.54687 0.20313,-0.21875 0.59375,-0.21875 0.39063,0 0.59375,0.21875 0.20313,0.21875 0.20313,0.54687 0,0.3125 -0.20313,0.53125 -0.20312,0.20313 -0.59375,0.20313 -0.39062,0 -0.59375,-0.20313 -0.1875,-0.21875 -0.1875,-0.53125 z m 5.92188,2.60938 q 0,-1.53125 0.40625,-2.95313 0.42187,-1.42187 1.23437,-2.57812 Q 164.125,0.48437 165.01562,0 l 0.25,0.84375 q -1,0.76562 -1.64062,2.34375 -0.625,1.5625 -0.6875,3.5 l -0.0156,0.59375 q 0,2.64062 0.96875,4.57812 0.57813,1.15625 1.375,1.8125 l -0.25,0.78125 q -0.92187,-0.51562 -1.75,-1.70312 -1.60937,-2.32813 -1.60937,-5.5625 z m 9.35937,2.07812 q 0,-0.5 -0.39062,-0.78125 -0.39063,-0.29687 -1.34375,-0.5 Q 168.32812,7.78125 167.75,7.5 167.1875,7.20312 166.92187,6.8125 166.65625,6.42187 166.65625,5.875 q 0,-0.92188 0.76562,-1.54688 0.76563,-0.625 1.96875,-0.625 1.25,0 2.03125,0.65625 0.78125,0.64063 0.78125,1.65625 h -1.26562 q 0,-0.53125 -0.4375,-0.90625 -0.4375,-0.375 -1.10938,-0.375 -0.6875,0 -1.07812,0.3125 -0.39063,0.29688 -0.39063,0.78125 0,0.45313 0.35938,0.6875 0.35937,0.23438 1.29687,0.45313 0.95313,0.20312 1.54688,0.5 0.59375,0.29687 0.875,0.71875 0.28125,0.40625 0.28125,1 0,0.98437 -0.79688,1.59375 -0.79687,0.59375 -2.0625,0.59375 -0.875,0 -1.5625,-0.3125 -0.6875,-0.32813 -1.07812,-0.89063 -0.375,-0.5625 -0.375,-1.21875 h 1.26562 q 0.0312,0.64063 0.5,1.01563 0.48438,0.375 1.25,0.375 0.71875,0 1.15625,-0.29688 0.4375,-0.29687 0.4375,-0.78125 z m 5.76563,2.10938 q -1.51563,0 -2.45313,-0.98438 -0.9375,-1 -0.9375,-2.65625 V 7.51562 q 0,-1.10937 0.42188,-1.96875 0.42187,-0.875 1.17187,-1.35937 0.75,-0.48438 1.64063,-0.48438 1.4375,0 2.23437,0.95313 0.79688,0.9375 0.79688,2.71875 v 0.51562 h -5 q 0.0156,1.09375 0.625,1.78125 0.625,0.67188 1.5625,0.67188 0.67187,0 1.125,-0.26563 0.46875,-0.28125 0.82812,-0.73437 l 0.76563,0.59375 q -0.92188,1.4375 -2.78125,1.4375 z M 176.625,4.73437 q -0.76563,0 -1.29688,0.5625 -0.51562,0.5625 -0.64062,1.5625 h 3.70312 v -0.0937 q -0.0469,-0.96875 -0.51562,-1.5 -0.46875,-0.53125 -1.25,-0.53125 z m 5.45312,6.5 h -1.26562 v -10.5 h 1.26562 z m 4.70313,0.14063 q -1.51563,0 -2.45313,-0.98438 -0.9375,-1 -0.9375,-2.65625 V 7.51562 q 0,-1.10937 0.42188,-1.96875 0.42187,-0.875 1.17187,-1.35937 0.75,-0.48438 1.64063,-0.48438 1.4375,0 2.23437,0.95313 0.79688,0.9375 0.79688,2.71875 v 0.51562 h -5 q 0.0156,1.09375 0.625,1.78125 0.625,0.67188 1.5625,0.67188 0.67187,0 1.125,-0.26563 0.46875,-0.28125 0.82812,-0.73437 l 0.76563,0.59375 q -0.92188,1.4375 -2.78125,1.4375 z M 186.625,4.73437 q -0.76563,0 -1.29688,0.5625 -0.51562,0.5625 -0.64062,1.5625 h 3.70312 v -0.0937 q -0.0469,-0.96875 -0.51562,-1.5 -0.46875,-0.53125 -1.25,-0.53125 z m 7.04687,5.60938 q 0.67188,0 1.17188,-0.40625 0.51562,-0.42188 0.57812,-1.03125 h 1.1875 q -0.0312,0.625 -0.4375,1.20312 -0.40625,0.57813 -1.07812,0.92188 -0.67188,0.34375 -1.42188,0.34375 -1.51562,0 -2.40625,-1 Q 190.375,9.35937 190.375,7.60937 V 7.39062 q 0,-1.07812 0.39062,-1.92187 0.40625,-0.84375 1.14063,-1.29688 0.75,-0.46875 1.76562,-0.46875 1.23438,0 2.0625,0.75 0.82813,0.73438 0.875,1.92188 h -1.1875 q -0.0625,-0.71875 -0.54687,-1.17188 -0.48438,-0.46875 -1.20313,-0.46875 -0.96875,0 -1.5,0.70313 -0.53125,0.6875 -0.53125,2 v 0.23437 q 0,1.28125 0.53125,1.98438 0.53125,0.6875 1.5,0.6875 z m 5.75,-8.29688 v 1.79688 h 1.375 V 4.8125 h -1.375 v 4.59375 q 0,0.4375 0.1875,0.67187 0.1875,0.21875 0.625,0.21875 0.21875,0 0.60938,-0.0937 v 1.03125 q -0.5,0.14063 -0.96875,0.14063 -0.85938,0 -1.29688,-0.51563 -0.42187,-0.51562 -0.42187,-1.45312 V 4.81255 H 196.8125 V 3.8438 h 1.34375 V 2.04692 Z m 10.85938,9.1875 q -0.10938,-0.21875 -0.1875,-0.78125 -0.875,0.92188 -2.10938,0.92188 -1.09375,0 -1.79687,-0.60938 Q 205.5,10.14062 205.5,9.1875 205.5,8.03125 206.375,7.39062 207.25,6.75 208.84375,6.75 h 1.23437 V 6.17187 q 0,-0.67187 -0.40625,-1.0625 -0.39062,-0.39062 -1.15625,-0.39062 -0.6875,0 -1.14062,0.34375 -0.45313,0.34375 -0.45313,0.82812 h -1.28125 q 0,-0.5625 0.39063,-1.07812 0.40625,-0.51563 1.07812,-0.8125 0.67188,-0.29688 1.46875,-0.29688 1.28125,0 2,0.64063 0.73438,0.64062 0.76563,1.75 V 9.5 q 0,1.01562 0.25,1.625 v 0.10937 z m -2.10938,-0.96875 q 0.59375,0 1.125,-0.29687 0.54688,-0.3125 0.78125,-0.8125 V 7.64062 h -1 q -2.3125,0 -2.3125,1.35938 0,0.59375 0.39063,0.9375 0.39062,0.32812 1.01562,0.32812 z m 6.90625,0.96875 h -1.26562 v -10.5 h 1.26562 z m 3,0 h -1.26562 v -10.5 h 1.26562 z m 6.34375,-9.1875 v 1.79688 h 1.375 V 4.8125 h -1.375 v 4.59375 q 0,0.4375 0.1875,0.67187 0.1875,0.21875 0.625,0.21875 0.21875,0 0.60938,-0.0937 v 1.03125 q -0.5,0.14063 -0.96875,0.14063 -0.85938,0 -1.29688,-0.51563 -0.42187,-0.51562 -0.42187,-1.45312 V 4.81255 H 221.8125 V 3.8438 h 1.34375 V 2.04692 Z m 4.54688,2.6875 q 0.84375,-1.03125 2.1875,-1.03125 2.34375,0 2.375,2.64063 v 4.89062 h -1.26563 V 6.34375 q -0.0156,-0.79688 -0.375,-1.17188 -0.35937,-0.39062 -1.10937,-0.39062 -0.625,0 -1.09375,0.32812 -0.45313,0.32813 -0.71875,0.85938 v 5.26562 h -1.26563 v -10.5 h 1.26563 z m 11.3125,6.5 q -0.10938,-0.21875 -0.1875,-0.78125 -0.875,0.92188 -2.10938,0.92188 -1.09375,0 -1.79687,-0.60938 Q 235.5,10.14062 235.5,9.1875 235.5,8.03125 236.375,7.39062 237.25,6.75 238.84375,6.75 h 1.23437 V 6.17187 q 0,-0.67187 -0.40625,-1.0625 -0.39062,-0.39062 -1.15625,-0.39062 -0.6875,0 -1.14062,0.34375 -0.45313,0.34375 -0.45313,0.82812 h -1.28125 q 0,-0.5625 0.39063,-1.07812 0.40625,-0.51563 1.07812,-0.8125 0.67188,-0.29688 1.46875,-0.29688 1.28125,0 2,0.64063 0.73438,0.64062 0.76563,1.75 V 9.5 q 0,1.01562 0.25,1.625 v 0.10937 z m -2.10938,-0.96875 q 0.59375,0 1.125,-0.29687 0.54688,-0.3125 0.78125,-0.8125 V 7.64062 h -1 q -2.3125,0 -2.3125,1.35938 0,0.59375 0.39063,0.9375 0.39062,0.32812 1.01562,0.32812 z m 7.25,-8.21875 v 1.79688 h 1.375 V 4.8125 h -1.375 v 4.59375 q 0,0.4375 0.1875,0.67187 0.1875,0.21875 0.625,0.21875 0.21875,0 0.60938,-0.0937 v 1.03125 q -0.5,0.14063 -0.96875,0.14063 -0.85938,0 -1.29688,-0.51563 -0.42187,-0.51562 -0.42187,-1.45312 V 4.81255 H 242.8125 V 3.8438 h 1.34375 V 2.04692 Z m 10.85938,9.1875 q -0.10938,-0.21875 -0.1875,-0.78125 -0.875,0.92188 -2.10938,0.92188 -1.09375,0 -1.79687,-0.60938 Q 251.5,10.14062 251.5,9.1875 251.5,8.03125 252.375,7.39062 253.25,6.75 254.84375,6.75 h 1.23437 V 6.17187 q 0,-0.67187 -0.40625,-1.0625 -0.39062,-0.39062 -1.15625,-0.39062 -0.6875,0 -1.14062,0.34375 -0.45313,0.34375 -0.45313,0.82812 h -1.28125 q 0,-0.5625 0.39063,-1.07812 0.40625,-0.51563 1.07812,-0.8125 0.67188,-0.29688 1.46875,-0.29688 1.28125,0 2,0.64063 0.73438,0.64062 0.76563,1.75 V 9.5 q 0,1.01562 0.25,1.625 v 0.10937 z m -2.10938,-0.96875 q 0.59375,0 1.125,-0.29687 0.54688,-0.3125 0.78125,-0.8125 V 7.64062 h -1 q -2.3125,0 -2.3125,1.35938 0,0.59375 0.39063,0.9375 0.39062,0.32812 1.01562,0.32812 z M 265.95312,7.625 q 0,1.6875 -0.78125,2.71875 -0.76562,1.03125 -2.07812,1.03125 -1.34375,0 -2.125,-0.85938 v 3.5625 h -1.26563 V 3.84375 h 1.15625 l 0.0625,0.8125 q 0.78125,-0.95313 2.15625,-0.95313 1.32813,0 2.09375,1 0.78125,1 0.78125,2.79688 z M 264.6875,7.46875 q 0,-1.25 -0.53125,-1.96875 -0.53125,-0.71875 -1.46875,-0.71875 -1.14063,0 -1.71875,1.01562 v 3.53125 q 0.57812,1.01563 1.73437,1.01563 0.92188,0 1.45313,-0.71875 0.53125,-0.73438 0.53125,-2.15625 z m 9.26562,0.15625 q 0,1.6875 -0.78125,2.71875 -0.76562,1.03125 -2.07812,1.03125 -1.34375,0 -2.125,-0.85938 v 3.5625 h -1.26563 V 3.84375 h 1.15625 l 0.0625,0.8125 q 0.78125,-0.95313 2.15625,-0.95313 1.32813,0 2.09375,1 0.78125,1 0.78125,2.79688 z M 272.6875,7.46875 q 0,-1.25 -0.53125,-1.96875 -0.53125,-0.71875 -1.46875,-0.71875 -1.14063,0 -1.71875,1.01562 v 3.53125 q 0.57812,1.01563 1.73437,1.01563 0.92188,0 1.45313,-0.71875 0.53125,-0.73438 0.53125,-2.15625 z m 4.39062,3.76562 h -1.26562 v -10.5 h 1.26562 z M 281.125,9.375 282.84375,3.84375 h 1.35937 l -2.96875,8.53125 q -0.6875,1.84375 -2.20312,1.84375 l -0.23438,-0.0156 -0.46875,-0.0937 v -1.01563 l 0.34375,0.0156 q 0.64063,0 1,-0.26562 0.35938,-0.25 0.59375,-0.9375 l 0.28125,-0.75 -2.64062,-7.3125 h 1.375 z m 7.5,-2.10938 q 0,1.51563 -0.40625,2.92188 -0.39063,1.39062 -1.21875,2.57812 -0.82813,1.1875 -1.71875,1.6875 l -0.26563,-0.78125 q 1.04688,-0.79687 1.6875,-2.5 0.64063,-1.70312 0.65625,-3.76562 V 7.1875 q 0,-1.4375 -0.3125,-2.67188 Q 286.75,3.28125 286.21875,2.3125 285.6875,1.32812 285.01562,0.78125 L 285.28125,0 q 0.89062,0.5 1.70312,1.67187 0.82813,1.17188 1.23438,2.57813 0.40625,1.40625 0.40625,3.01562 z"
     id="path333"
     inkscape:connector-curvature="0"
     style="fill:#666666;fill-rule:nonzero" />
</svg>
